%TF.GenerationSoftware,KiCad,Pcbnew,9.0.7*%
%TF.CreationDate,2026-02-21T00:34:37-05:00*%
%TF.ProjectId,roamr-motors,726f616d-722d-46d6-9f74-6f72732e6b69,rev?*%
%TF.SameCoordinates,Original*%
%TF.FileFunction,Other,User*%
%FSLAX46Y46*%
G04 Gerber Fmt 4.6, Leading zero omitted, Abs format (unit mm)*
G04 Created by KiCad (PCBNEW 9.0.7) date 2026-02-21 00:34:37*
%MOMM*%
%LPD*%
G01*
G04 APERTURE LIST*
%ADD10C,0.050000*%
%ADD11C,0.100000*%
%ADD12C,0.152400*%
G04 APERTURE END LIST*
D10*
%TO.C,D4*%
X182540000Y-113800000D02*
X182540000Y-104100000D01*
X189260000Y-113800000D02*
X182540000Y-113800000D01*
X182540000Y-104100000D02*
X189260000Y-104100000D01*
X189260000Y-104100000D02*
X189260000Y-113800000D01*
%TO.C,D1*%
X189260000Y-93950000D02*
X189260000Y-103650000D01*
X182540000Y-93950000D02*
X189260000Y-93950000D01*
X189260000Y-103650000D02*
X182540000Y-103650000D01*
X182540000Y-103650000D02*
X182540000Y-93950000D01*
%TO.C,R11*%
X107442500Y-104295000D02*
X105982500Y-104295000D01*
X105982500Y-107255000D01*
X107442500Y-107255000D01*
X107442500Y-104295000D01*
%TO.C,R25*%
X170595000Y-110170000D02*
X173555000Y-110170000D01*
X173555000Y-111630000D01*
X170595000Y-111630000D01*
X170595000Y-110170000D01*
%TO.C,C14*%
X119530000Y-106745000D02*
X118070000Y-106745000D01*
X118070000Y-109705000D01*
X119530000Y-109705000D01*
X119530000Y-106745000D01*
D11*
%TO.C,D5*%
X99400000Y-100860000D02*
X101200000Y-100860000D01*
X99400000Y-103660000D02*
X99400000Y-100860000D01*
X101200000Y-100860000D02*
X101200000Y-103660000D01*
X101200000Y-103660000D02*
X99400000Y-103660000D01*
D10*
%TO.C,D19*%
X157775000Y-81700000D02*
X159625000Y-81700000D01*
X157775000Y-85000000D02*
X157775000Y-81700000D01*
X159625000Y-81700000D02*
X159625000Y-85000000D01*
X159625000Y-85000000D02*
X157775000Y-85000000D01*
%TO.C,C6*%
X104530000Y-101720000D02*
X103070000Y-101720000D01*
X103070000Y-104680000D01*
X104530000Y-104680000D01*
X104530000Y-101720000D01*
%TO.C,C26*%
X173245000Y-99837433D02*
X176205000Y-99837433D01*
X176205000Y-101297433D01*
X173245000Y-101297433D01*
X173245000Y-99837433D01*
D12*
%TO.C,J3*%
X89270880Y-81305568D02*
X89270880Y-90754368D01*
X89270880Y-90754368D02*
X97029056Y-90754368D01*
X97029056Y-81305568D02*
X89270880Y-81305568D01*
X97029056Y-90754368D02*
X97029056Y-81305568D01*
%TO.C,R22*%
D10*
X119270000Y-110170000D02*
X122230000Y-110170000D01*
X122230000Y-111630000D01*
X119270000Y-111630000D01*
X119270000Y-110170000D01*
%TO.C,U2*%
X104700000Y-99020000D02*
X105050000Y-99020000D01*
X104700000Y-102780000D02*
X104700000Y-99020000D01*
X105050000Y-98150000D02*
X105920000Y-98150000D01*
X105050000Y-99020000D02*
X105050000Y-98150000D01*
X105050000Y-102780000D02*
X104700000Y-102780000D01*
X105050000Y-103650000D02*
X105050000Y-102780000D01*
X105920000Y-97800000D02*
X109680000Y-97800000D01*
X105920000Y-98150000D02*
X105920000Y-97800000D01*
X105920000Y-103650000D02*
X105050000Y-103650000D01*
X105920000Y-104000000D02*
X105920000Y-103650000D01*
X109680000Y-97800000D02*
X109680000Y-98150000D01*
X109680000Y-98150000D02*
X110550000Y-98150000D01*
X109680000Y-103650000D02*
X109680000Y-104000000D01*
X109680000Y-104000000D02*
X105920000Y-104000000D01*
X110550000Y-98150000D02*
X110550000Y-99020000D01*
X110550000Y-99020000D02*
X110900000Y-99020000D01*
X110550000Y-102780000D02*
X110550000Y-103650000D01*
X110550000Y-103650000D02*
X109680000Y-103650000D01*
X110900000Y-99020000D02*
X110900000Y-102780000D01*
X110900000Y-102780000D02*
X110550000Y-102780000D01*
%TO.C,R15*%
X102895000Y-106570000D02*
X105855000Y-106570000D01*
X105855000Y-108030000D01*
X102895000Y-108030000D01*
X102895000Y-106570000D01*
%TO.C,R23*%
X171745000Y-106237433D02*
X174705000Y-106237433D01*
X174705000Y-107697433D01*
X171745000Y-107697433D01*
X171745000Y-106237433D01*
D12*
%TO.C,U5*%
X166888500Y-98735740D02*
X167193300Y-98735740D01*
X166888500Y-104999126D02*
X166888500Y-98735740D01*
X167193300Y-98057433D02*
X167868559Y-98057433D01*
X167193300Y-98735740D02*
X167193300Y-98057433D01*
X167193300Y-104999126D02*
X166888500Y-104999126D01*
X167193300Y-105677433D02*
X167193300Y-104999126D01*
X167868559Y-97752633D02*
X172131441Y-97752633D01*
X167868559Y-98057433D02*
X167868559Y-97752633D01*
X167868559Y-105677433D02*
X167193300Y-105677433D01*
X167868559Y-105982233D02*
X167868559Y-105677433D01*
X172131441Y-97752633D02*
X172131441Y-98057433D01*
X172131441Y-98057433D02*
X172806700Y-98057433D01*
X172131441Y-105677433D02*
X172131441Y-105982233D01*
X172131441Y-105982233D02*
X167868559Y-105982233D01*
X172806700Y-98057433D02*
X172806700Y-98735740D01*
X172806700Y-98735740D02*
X173111500Y-98735740D01*
X172806700Y-104999126D02*
X172806700Y-105677433D01*
X172806700Y-105677433D02*
X172131441Y-105677433D01*
X173111500Y-98735740D02*
X173111500Y-104999126D01*
X173111500Y-104999126D02*
X172806700Y-104999126D01*
D11*
%TO.C,D2*%
X97400000Y-102500000D02*
X99200000Y-102500000D01*
X97400000Y-105300000D02*
X97400000Y-102500000D01*
X99200000Y-102500000D02*
X99200000Y-105300000D01*
X99200000Y-105300000D02*
X97400000Y-105300000D01*
D12*
%TO.C,J2*%
X89294800Y-96125600D02*
X89294800Y-105574400D01*
X89294800Y-105574400D02*
X97052976Y-105574400D01*
X97052976Y-96125600D02*
X89294800Y-96125600D01*
X97052976Y-105574400D02*
X97052976Y-96125600D01*
D10*
%TO.C,D13*%
X189975000Y-79300000D02*
X191825000Y-79300000D01*
X189975000Y-82600000D02*
X189975000Y-79300000D01*
X191825000Y-79300000D02*
X191825000Y-82600000D01*
X191825000Y-82600000D02*
X189975000Y-82600000D01*
%TO.C,C4*%
X129955000Y-94380000D02*
X126995000Y-94380000D01*
X126995000Y-92920000D01*
X129955000Y-92920000D01*
X129955000Y-94380000D01*
D11*
%TO.C,Q1*%
X130325000Y-108340000D02*
X135875000Y-108340000D01*
X130325000Y-113260000D02*
X130325000Y-108340000D01*
X135875000Y-108340000D02*
X135875000Y-113260000D01*
X135875000Y-113260000D02*
X130325000Y-113260000D01*
%TO.C,R10*%
D10*
X110617500Y-105730000D02*
X107657500Y-105730000D01*
X107657500Y-104270000D01*
X110617500Y-104270000D01*
X110617500Y-105730000D01*
%TO.C,R19*%
X133745000Y-84770000D02*
X136705000Y-84770000D01*
X136705000Y-86230000D01*
X133745000Y-86230000D01*
X133745000Y-84770000D01*
%TO.C,R17*%
X159655000Y-108130000D02*
X156695000Y-108130000D01*
X156695000Y-106670000D01*
X159655000Y-106670000D01*
X159655000Y-108130000D01*
%TO.C,C18*%
X123370000Y-106270000D02*
X126330000Y-106270000D01*
X126330000Y-107730000D01*
X123370000Y-107730000D01*
X123370000Y-106270000D01*
%TO.C,F1*%
X189314905Y-103430553D02*
X192114905Y-103430553D01*
X192114905Y-98280553D01*
X189314905Y-98280553D01*
X189314905Y-103430553D01*
%TO.C,D16*%
X126650000Y-94525000D02*
X129950000Y-94525000D01*
X126650000Y-96375000D02*
X126650000Y-94525000D01*
X129950000Y-94525000D02*
X129950000Y-96375000D01*
X129950000Y-96375000D02*
X126650000Y-96375000D01*
D11*
%TO.C,D17*%
X185150000Y-85300000D02*
X189650000Y-85300000D01*
X185150000Y-93700000D02*
X185150000Y-85300000D01*
X189650000Y-85300000D02*
X189650000Y-93700000D01*
X189650000Y-93700000D02*
X185150000Y-93700000D01*
D10*
%TO.C,U3*%
X123000000Y-59790000D02*
X123000000Y-80790000D01*
X123000000Y-80790000D02*
X137250000Y-80790000D01*
X137250000Y-100990000D02*
X137250000Y-80790000D01*
X137250000Y-100990000D02*
X156750000Y-100990000D01*
X156750000Y-80790000D02*
X156750000Y-100990000D01*
X156750000Y-80790000D02*
X171000000Y-80790000D01*
X171000000Y-59790000D02*
X123000000Y-59790000D01*
X171000000Y-80790000D02*
X171000000Y-59790000D01*
%TO.C,R18*%
X159870000Y-84780000D02*
X161330000Y-84780000D01*
X161330000Y-81820000D01*
X159870000Y-81820000D01*
X159870000Y-84780000D01*
%TO.C,C1*%
X99770000Y-93505000D02*
X101230000Y-93505000D01*
X101230000Y-90545000D01*
X99770000Y-90545000D01*
X99770000Y-93505000D01*
%TO.C,C24*%
X173270000Y-104422433D02*
X174730000Y-104422433D01*
X174730000Y-101462433D01*
X173270000Y-101462433D01*
X173270000Y-104422433D01*
%TO.C,C19*%
X121574500Y-99650000D02*
X126455433Y-99650000D01*
X126455433Y-93029000D01*
X121574500Y-93029000D01*
X121574500Y-99650000D01*
%TO.C,R9*%
X133155000Y-96330000D02*
X130195000Y-96330000D01*
X130195000Y-94870000D01*
X133155000Y-94870000D01*
X133155000Y-96330000D01*
%TO.C,C17*%
X121545000Y-99774400D02*
X124505000Y-99774400D01*
X124505000Y-101234400D01*
X121545000Y-101234400D01*
X121545000Y-99774400D01*
%TO.C,C22*%
X166730000Y-104895000D02*
X165270000Y-104895000D01*
X165270000Y-107855000D01*
X166730000Y-107855000D01*
X166730000Y-104895000D01*
D12*
%TO.C,SW2*%
X137796700Y-106688200D02*
X146303300Y-106688200D01*
X137796700Y-113190600D02*
X137796700Y-106688200D01*
X146303300Y-106688200D02*
X146303300Y-113190600D01*
X146303300Y-113190600D02*
X137796700Y-113190600D01*
%TO.C,C3*%
D10*
X123070000Y-91980000D02*
X124530000Y-91980000D01*
X124530000Y-89020000D01*
X123070000Y-89020000D01*
X123070000Y-91980000D01*
%TO.C,J1*%
X192350000Y-104150000D02*
X204850000Y-104150000D01*
X204850000Y-95750000D01*
X192350000Y-95750000D01*
X192350000Y-104150000D01*
%TO.C,R14*%
X105855000Y-106430000D02*
X102895000Y-106430000D01*
X102895000Y-104970000D01*
X105855000Y-104970000D01*
X105855000Y-106430000D01*
%TO.C,R8*%
X133155000Y-98030000D02*
X130195000Y-98030000D01*
X130195000Y-96570000D01*
X133155000Y-96570000D01*
X133155000Y-98030000D01*
%TO.C,C20*%
X123070000Y-108270000D02*
X126030000Y-108270000D01*
X126030000Y-109730000D01*
X123070000Y-109730000D01*
X123070000Y-108270000D01*
%TO.C,J10*%
X179450000Y-79900000D02*
X182250000Y-79900000D01*
X179450000Y-82110000D02*
X179450000Y-79900000D01*
X179450000Y-87490000D02*
X179650000Y-87490000D01*
X179450000Y-89700000D02*
X179450000Y-87490000D01*
X179650000Y-82110000D02*
X179450000Y-82110000D01*
X179650000Y-87490000D02*
X179650000Y-82110000D01*
X182250000Y-79900000D02*
X182250000Y-80300000D01*
X182250000Y-80300000D02*
X183550000Y-80300000D01*
X182250000Y-89300000D02*
X182250000Y-89700000D01*
X182250000Y-89700000D02*
X179450000Y-89700000D01*
X183550000Y-80300000D02*
X183550000Y-81500000D01*
X183550000Y-81500000D02*
X184650000Y-81500000D01*
X183550000Y-88100000D02*
X183550000Y-89300000D01*
X183550000Y-89300000D02*
X182250000Y-89300000D01*
X184650000Y-81500000D02*
X184650000Y-88100000D01*
X184650000Y-88100000D02*
X183550000Y-88100000D01*
%TO.C,R13*%
X162730000Y-108080000D02*
X159770000Y-108080000D01*
X159770000Y-106620000D01*
X162730000Y-106620000D01*
X162730000Y-108080000D01*
%TO.C,C25*%
X176330000Y-101420000D02*
X174870000Y-101420000D01*
X174870000Y-104380000D01*
X176330000Y-104380000D01*
X176330000Y-101420000D01*
%TO.C,C11*%
X158130000Y-108295000D02*
X156670000Y-108295000D01*
X156670000Y-111255000D01*
X158130000Y-111255000D01*
X158130000Y-108295000D01*
%TO.C,D10*%
X97350000Y-88145000D02*
X99550000Y-88145000D01*
X97350000Y-93215000D02*
X97350000Y-88145000D01*
X99550000Y-88145000D02*
X99550000Y-93215000D01*
X99550000Y-93215000D02*
X97350000Y-93215000D01*
%TO.C,R21*%
X119770000Y-108270000D02*
X122730000Y-108270000D01*
X122730000Y-109730000D01*
X119770000Y-109730000D01*
X119770000Y-108270000D01*
%TO.C,D14*%
X189975000Y-88300000D02*
X191825000Y-88300000D01*
X189975000Y-91600000D02*
X189975000Y-88300000D01*
X191825000Y-88300000D02*
X191825000Y-91600000D01*
X191825000Y-91600000D02*
X189975000Y-91600000D01*
%TO.C,C5*%
X102830000Y-101695000D02*
X101370000Y-101695000D01*
X101370000Y-104655000D01*
X102830000Y-104655000D01*
X102830000Y-101695000D01*
%TO.C,C13*%
X115030000Y-104895000D02*
X113570000Y-104895000D01*
X113570000Y-107855000D01*
X115030000Y-107855000D01*
X115030000Y-104895000D01*
%TO.C,C8*%
X133670000Y-84655000D02*
X135130000Y-84655000D01*
X135130000Y-81695000D01*
X133670000Y-81695000D01*
X133670000Y-84655000D01*
D11*
%TO.C,D3*%
X97400000Y-81560000D02*
X99200000Y-81560000D01*
X97400000Y-84360000D02*
X97400000Y-81560000D01*
X99200000Y-81560000D02*
X99200000Y-84360000D01*
X99200000Y-84360000D02*
X97400000Y-84360000D01*
%TO.C,D11*%
X177750000Y-104000000D02*
X182250000Y-104000000D01*
X177750000Y-112400000D02*
X177750000Y-104000000D01*
X182250000Y-104000000D02*
X182250000Y-112400000D01*
X182250000Y-112400000D02*
X177750000Y-112400000D01*
D10*
%TO.C,U1*%
X124975000Y-85400000D02*
X133525000Y-85400000D01*
X124975000Y-92600000D02*
X124975000Y-85400000D01*
X133525000Y-85400000D02*
X133525000Y-92600000D01*
X133525000Y-92600000D02*
X124975000Y-92600000D01*
%TO.C,J7*%
X108800000Y-81750000D02*
X109900000Y-81750000D01*
X108800000Y-88350000D02*
X108800000Y-81750000D01*
X109900000Y-80550000D02*
X111200000Y-80550000D01*
X109900000Y-81750000D02*
X109900000Y-80550000D01*
X109900000Y-88350000D02*
X108800000Y-88350000D01*
X109900000Y-89550000D02*
X109900000Y-88350000D01*
X111200000Y-80150000D02*
X114000000Y-80150000D01*
X111200000Y-80550000D02*
X111200000Y-80150000D01*
X111200000Y-89550000D02*
X109900000Y-89550000D01*
X111200000Y-89950000D02*
X111200000Y-89550000D01*
X113800000Y-82360000D02*
X113800000Y-87740000D01*
X113800000Y-87740000D02*
X114000000Y-87740000D01*
X114000000Y-80150000D02*
X114000000Y-82360000D01*
X114000000Y-82360000D02*
X113800000Y-82360000D01*
X114000000Y-87740000D02*
X114000000Y-89950000D01*
X114000000Y-89950000D02*
X111200000Y-89950000D01*
%TO.C,R6*%
X191580000Y-85220000D02*
X190120000Y-85220000D01*
X190120000Y-88180000D01*
X191580000Y-88180000D01*
X191580000Y-85220000D01*
%TO.C,C15*%
X121570000Y-104559400D02*
X123030000Y-104559400D01*
X123030000Y-101599400D01*
X121570000Y-101599400D01*
X121570000Y-104559400D01*
%TO.C,R5*%
X191580000Y-76145000D02*
X190120000Y-76145000D01*
X190120000Y-79105000D01*
X191580000Y-79105000D01*
X191580000Y-76145000D01*
%TO.C,C29*%
X174445000Y-108137433D02*
X177405000Y-108137433D01*
X177405000Y-109597433D01*
X174445000Y-109597433D01*
X174445000Y-108137433D01*
D11*
%TO.C,D7*%
X97400000Y-98740000D02*
X99200000Y-98740000D01*
X97400000Y-101540000D02*
X97400000Y-98740000D01*
X99200000Y-98740000D02*
X99200000Y-101540000D01*
X99200000Y-101540000D02*
X97400000Y-101540000D01*
%TO.C,C10*%
D10*
X135730000Y-86420000D02*
X134270000Y-86420000D01*
X134270000Y-89380000D01*
X135730000Y-89380000D01*
X135730000Y-86420000D01*
D11*
%TO.C,Q2*%
X158350000Y-108340000D02*
X163900000Y-108340000D01*
X158350000Y-113260000D02*
X158350000Y-108340000D01*
X163900000Y-108340000D02*
X163900000Y-113260000D01*
X163900000Y-113260000D02*
X158350000Y-113260000D01*
%TO.C,R3*%
D10*
X99670000Y-82955000D02*
X101130000Y-82955000D01*
X101130000Y-79995000D01*
X99670000Y-79995000D01*
X99670000Y-82955000D01*
%TO.C,J9*%
X169750000Y-82600000D02*
X172250000Y-82600000D01*
X169750000Y-88600000D02*
X169750000Y-82600000D01*
X172250000Y-80120000D02*
X173250000Y-80120000D01*
X172250000Y-82600000D02*
X172250000Y-80120000D01*
X172250000Y-88600000D02*
X169750000Y-88600000D01*
X172250000Y-91080000D02*
X172250000Y-88600000D01*
X173250000Y-79900000D02*
X177250000Y-79900000D01*
X173250000Y-80120000D02*
X173250000Y-79900000D01*
X173250000Y-91080000D02*
X172250000Y-91080000D01*
X173250000Y-91300000D02*
X173250000Y-91080000D01*
X177250000Y-79900000D02*
X177250000Y-80120000D01*
X177250000Y-80120000D02*
X178250000Y-80120000D01*
X177250000Y-91080000D02*
X177250000Y-91300000D01*
X177250000Y-91300000D02*
X173250000Y-91300000D01*
X178250000Y-80120000D02*
X178250000Y-91080000D01*
X178250000Y-91080000D02*
X177250000Y-91080000D01*
D12*
%TO.C,U4*%
X115138311Y-98768307D02*
X115443111Y-98768307D01*
X115138311Y-105031693D02*
X115138311Y-98768307D01*
X115443111Y-98090000D02*
X116118370Y-98090000D01*
X115443111Y-98768307D02*
X115443111Y-98090000D01*
X115443111Y-105031693D02*
X115138311Y-105031693D01*
X115443111Y-105710000D02*
X115443111Y-105031693D01*
X116118370Y-97785200D02*
X120381252Y-97785200D01*
X116118370Y-98090000D02*
X116118370Y-97785200D01*
X116118370Y-105710000D02*
X115443111Y-105710000D01*
X116118370Y-106014800D02*
X116118370Y-105710000D01*
X120381252Y-97785200D02*
X120381252Y-98090000D01*
X120381252Y-98090000D02*
X121056511Y-98090000D01*
X120381252Y-105710000D02*
X120381252Y-106014800D01*
X120381252Y-106014800D02*
X116118370Y-106014800D01*
X121056511Y-98090000D02*
X121056511Y-98768307D01*
X121056511Y-98768307D02*
X121361311Y-98768307D01*
X121056511Y-105031693D02*
X121056511Y-105710000D01*
X121056511Y-105710000D02*
X120381252Y-105710000D01*
X121361311Y-98768307D02*
X121361311Y-105031693D01*
X121361311Y-105031693D02*
X121056511Y-105031693D01*
D10*
%TO.C,D15*%
X126700000Y-96625000D02*
X130000000Y-96625000D01*
X126700000Y-98475000D02*
X126700000Y-96625000D01*
X130000000Y-96625000D02*
X130000000Y-98475000D01*
X130000000Y-98475000D02*
X126700000Y-98475000D01*
%TO.C,C21*%
X122370000Y-110170000D02*
X125330000Y-110170000D01*
X125330000Y-111630000D01*
X122370000Y-111630000D01*
X122370000Y-110170000D01*
%TO.C,R4*%
X101230000Y-87345000D02*
X99770000Y-87345000D01*
X99770000Y-90305000D01*
X101230000Y-90305000D01*
X101230000Y-87345000D01*
%TO.C,R20*%
X120220000Y-106270000D02*
X123180000Y-106270000D01*
X123180000Y-107730000D01*
X120220000Y-107730000D01*
X120220000Y-106270000D01*
%TO.C,C23*%
X170930000Y-106562433D02*
X169470000Y-106562433D01*
X169470000Y-109522433D01*
X170930000Y-109522433D01*
X170930000Y-106562433D01*
%TO.C,C28*%
X172774500Y-98010500D02*
X177655433Y-98010500D01*
X177655433Y-91389500D01*
X172774500Y-91389500D01*
X172774500Y-98010500D01*
%TO.C,D9*%
X97350000Y-93485000D02*
X99550000Y-93485000D01*
X97350000Y-98555000D02*
X97350000Y-93485000D01*
X99550000Y-93485000D02*
X99550000Y-98555000D01*
X99550000Y-98555000D02*
X97350000Y-98555000D01*
D11*
%TO.C,D6*%
X99550000Y-83240000D02*
X101350000Y-83240000D01*
X99550000Y-86040000D02*
X99550000Y-83240000D01*
X101350000Y-83240000D02*
X101350000Y-86040000D01*
X101350000Y-86040000D02*
X99550000Y-86040000D01*
D12*
%TO.C,SW1*%
X147946700Y-106748800D02*
X156453300Y-106748800D01*
X147946700Y-113251200D02*
X147946700Y-106748800D01*
X156453300Y-106748800D02*
X156453300Y-113251200D01*
X156453300Y-113251200D02*
X147946700Y-113251200D01*
D11*
%TO.C,D8*%
X97400000Y-85150000D02*
X99200000Y-85150000D01*
X97400000Y-87950000D02*
X97400000Y-85150000D01*
X99200000Y-85150000D02*
X99200000Y-87950000D01*
X99200000Y-87950000D02*
X97400000Y-87950000D01*
%TO.C,R24*%
D10*
X171295000Y-108137433D02*
X174255000Y-108137433D01*
X174255000Y-109597433D01*
X171295000Y-109597433D01*
X171295000Y-108137433D01*
%TO.C,C30*%
X173745000Y-110170000D02*
X176705000Y-110170000D01*
X176705000Y-111630000D01*
X173745000Y-111630000D01*
X173745000Y-110170000D01*
%TO.C,F2*%
X192078753Y-104730972D02*
X189278753Y-104730972D01*
X189278753Y-109880972D01*
X192078753Y-109880972D01*
X192078753Y-104730972D01*
%TO.C,J6*%
X115450000Y-80170000D02*
X116450000Y-80170000D01*
X115450000Y-91130000D02*
X115450000Y-80170000D01*
X116450000Y-79950000D02*
X120450000Y-79950000D01*
X116450000Y-80170000D02*
X116450000Y-79950000D01*
X116450000Y-91130000D02*
X115450000Y-91130000D01*
X116450000Y-91350000D02*
X116450000Y-91130000D01*
X120450000Y-79950000D02*
X120450000Y-80170000D01*
X120450000Y-80170000D02*
X121450000Y-80170000D01*
X120450000Y-91130000D02*
X120450000Y-91350000D01*
X120450000Y-91350000D02*
X116450000Y-91350000D01*
X121450000Y-80170000D02*
X121450000Y-82650000D01*
X121450000Y-82650000D02*
X123950000Y-82650000D01*
X121450000Y-88650000D02*
X121450000Y-91130000D01*
X121450000Y-91130000D02*
X120450000Y-91130000D01*
X123950000Y-82650000D02*
X123950000Y-88650000D01*
X123950000Y-88650000D02*
X121450000Y-88650000D01*
%TO.C,R2*%
X98830000Y-105595000D02*
X97370000Y-105595000D01*
X97370000Y-108555000D01*
X98830000Y-108555000D01*
X98830000Y-105595000D01*
%TO.C,C2*%
X101230000Y-93695000D02*
X99770000Y-93695000D01*
X99770000Y-96655000D01*
X101230000Y-96655000D01*
X101230000Y-93695000D01*
%TO.C,C27*%
X173245000Y-104570000D02*
X176205000Y-104570000D01*
X176205000Y-106030000D01*
X173245000Y-106030000D01*
X173245000Y-104570000D01*
%TO.C,R1*%
X99670000Y-100155000D02*
X101130000Y-100155000D01*
X101130000Y-97195000D01*
X99670000Y-97195000D01*
X99670000Y-100155000D01*
%TO.C,J8*%
X192300000Y-93600000D02*
X204800000Y-93600000D01*
X204800000Y-85200000D01*
X192300000Y-85200000D01*
X192300000Y-93600000D01*
D11*
%TO.C,D12*%
X177750000Y-95200000D02*
X182250000Y-95200000D01*
X177750000Y-103600000D02*
X177750000Y-95200000D01*
X182250000Y-95200000D02*
X182250000Y-103600000D01*
X182250000Y-103600000D02*
X177750000Y-103600000D01*
%TO.C,R7*%
D10*
X128695000Y-83270000D02*
X131655000Y-83270000D01*
X131655000Y-84730000D01*
X128695000Y-84730000D01*
X128695000Y-83270000D01*
D11*
%TO.C,D18*%
X185150000Y-76150000D02*
X189650000Y-76150000D01*
X185150000Y-84550000D02*
X185150000Y-76150000D01*
X189650000Y-76150000D02*
X189650000Y-84550000D01*
X189650000Y-84550000D02*
X185150000Y-84550000D01*
%TO.C,C12*%
D10*
X137605000Y-108295000D02*
X136145000Y-108295000D01*
X136145000Y-111255000D01*
X137605000Y-111255000D01*
X137605000Y-108295000D01*
%TO.C,J5*%
X192300000Y-84662412D02*
X204800000Y-84662412D01*
X204800000Y-76262412D01*
X192300000Y-76262412D01*
X192300000Y-84662412D01*
%TO.C,J4*%
X192350000Y-113150000D02*
X204850000Y-113150000D01*
X204850000Y-104750000D01*
X192350000Y-104750000D01*
X192350000Y-113150000D01*
%TO.C,C9*%
X135270000Y-84655000D02*
X136730000Y-84655000D01*
X136730000Y-81695000D01*
X135270000Y-81695000D01*
X135270000Y-84655000D01*
%TO.C,TP5*%
X106400000Y-79100000D02*
G75*
G02*
X102400000Y-79100000I-2000000J0D01*
G01*
X102400000Y-79100000D02*
G75*
G02*
X106400000Y-79100000I2000000J0D01*
G01*
%TO.C,R16*%
X134595000Y-106620000D02*
X137555000Y-106620000D01*
X137555000Y-108080000D01*
X134595000Y-108080000D01*
X134595000Y-106620000D01*
%TO.C,C16*%
X123195000Y-101474400D02*
X126155000Y-101474400D01*
X126155000Y-102934400D01*
X123195000Y-102934400D01*
X123195000Y-101474400D01*
%TO.C,C7*%
X131970000Y-84655000D02*
X133430000Y-84655000D01*
X133430000Y-81695000D01*
X131970000Y-81695000D01*
X131970000Y-84655000D01*
%TO.C,R12*%
X131420000Y-106620000D02*
X134380000Y-106620000D01*
X134380000Y-108080000D01*
X131420000Y-108080000D01*
X131420000Y-106620000D01*
%TD*%
M02*
