%TF.GenerationSoftware,KiCad,Pcbnew,9.0.7*%
%TF.CreationDate,2026-02-21T01:54:14-05:00*%
%TF.ProjectId,roamr-motors,726f616d-722d-46d6-9f74-6f72732e6b69,rev?*%
%TF.SameCoordinates,Original*%
%TF.FileFunction,Paste,Top*%
%TF.FilePolarity,Positive*%
%FSLAX46Y46*%
G04 Gerber Fmt 4.6, Leading zero omitted, Abs format (unit mm)*
G04 Created by KiCad (PCBNEW 9.0.7) date 2026-02-21 01:54:14*
%MOMM*%
%LPD*%
G01*
G04 APERTURE LIST*
G04 Aperture macros list*
%AMRoundRect*
0 Rectangle with rounded corners*
0 $1 Rounding radius*
0 $2 $3 $4 $5 $6 $7 $8 $9 X,Y pos of 4 corners*
0 Add a 4 corners polygon primitive as box body*
4,1,4,$2,$3,$4,$5,$6,$7,$8,$9,$2,$3,0*
0 Add four circle primitives for the rounded corners*
1,1,$1+$1,$2,$3*
1,1,$1+$1,$4,$5*
1,1,$1+$1,$6,$7*
1,1,$1+$1,$8,$9*
0 Add four rect primitives between the rounded corners*
20,1,$1+$1,$2,$3,$4,$5,0*
20,1,$1+$1,$4,$5,$6,$7,0*
20,1,$1+$1,$6,$7,$8,$9,0*
20,1,$1+$1,$8,$9,$2,$3,0*%
G04 Aperture macros list end*
%ADD10C,0.000000*%
%ADD11R,3.150000X2.200000*%
%ADD12RoundRect,0.200000X-0.275000X0.200000X-0.275000X-0.200000X0.275000X-0.200000X0.275000X0.200000X0*%
%ADD13RoundRect,0.200000X-0.200000X-0.275000X0.200000X-0.275000X0.200000X0.275000X-0.200000X0.275000X0*%
%ADD14RoundRect,0.225000X-0.250000X0.225000X-0.250000X-0.225000X0.250000X-0.225000X0.250000X0.225000X0*%
%ADD15R,0.400000X0.480000*%
%ADD16R,0.950000X0.900000*%
%ADD17RoundRect,0.225000X-0.225000X-0.250000X0.225000X-0.250000X0.225000X0.250000X-0.225000X0.250000X0*%
%ADD18R,1.150112X0.599948*%
%ADD19R,1.150000X0.300000*%
%ADD20RoundRect,0.225000X-0.225000X-0.225000X0.225000X-0.225000X0.225000X0.225000X-0.225000X0.225000X0*%
%ADD21RoundRect,0.062500X-0.337500X-0.062500X0.337500X-0.062500X0.337500X0.062500X-0.337500X0.062500X0*%
%ADD22RoundRect,0.062500X-0.062500X-0.337500X0.062500X-0.337500X0.062500X0.337500X-0.062500X0.337500X0*%
%ADD23R,0.812800X0.254000*%
%ADD24R,0.254000X0.812800*%
%ADD25R,3.810000X5.791200*%
%ADD26RoundRect,0.225000X0.225000X0.250000X-0.225000X0.250000X-0.225000X-0.250000X0.225000X-0.250000X0*%
%ADD27R,0.900000X0.800000*%
%ADD28RoundRect,0.200000X0.200000X0.275000X-0.200000X0.275000X-0.200000X-0.275000X0.200000X-0.275000X0*%
%ADD29R,1.730000X1.190000*%
%ADD30R,0.900000X0.950000*%
%ADD31R,2.100000X1.400000*%
%ADD32R,0.900000X0.900000*%
%ADD33R,1.500000X0.900000*%
%ADD34R,0.900000X1.500000*%
%ADD35RoundRect,0.200000X0.275000X-0.200000X0.275000X0.200000X-0.275000X0.200000X-0.275000X-0.200000X0*%
%ADD36RoundRect,0.225000X0.250000X-0.225000X0.250000X0.225000X-0.250000X0.225000X-0.250000X-0.225000X0*%
%ADD37R,1.100000X2.800000*%
%ADD38RoundRect,0.150000X0.625000X-0.150000X0.625000X0.150000X-0.625000X0.150000X-0.625000X-0.150000X0*%
%ADD39RoundRect,0.250000X0.650000X-0.350000X0.650000X0.350000X-0.650000X0.350000X-0.650000X-0.350000X0*%
%ADD40R,0.730000X1.210000*%
%ADD41R,1.750000X0.950000*%
%ADD42R,1.750000X3.200000*%
%ADD43RoundRect,0.150000X-0.625000X0.150000X-0.625000X-0.150000X0.625000X-0.150000X0.625000X0.150000X0*%
%ADD44RoundRect,0.250000X-0.650000X0.350000X-0.650000X-0.350000X0.650000X-0.350000X0.650000X0.350000X0*%
%ADD45RoundRect,0.250000X-2.500000X0.250000X-2.500000X-0.250000X2.500000X-0.250000X2.500000X0.250000X0*%
%ADD46RoundRect,0.250000X-1.250000X0.550000X-1.250000X-0.550000X1.250000X-0.550000X1.250000X0.550000X0*%
%ADD47RoundRect,0.250000X2.500000X-0.250000X2.500000X0.250000X-2.500000X0.250000X-2.500000X-0.250000X0*%
%ADD48RoundRect,0.250000X1.250000X-0.550000X1.250000X0.550000X-1.250000X0.550000X-1.250000X-0.550000X0*%
G04 APERTURE END LIST*
D10*
%TO.C,U5*%
G36*
X169265000Y-100319633D02*
G01*
X168195000Y-100319633D01*
X168195000Y-99071833D01*
X169265000Y-99071833D01*
X169265000Y-100319633D01*
G37*
G36*
X169265000Y-101767433D02*
G01*
X168195000Y-101767433D01*
X168195000Y-100519633D01*
X169265000Y-100519633D01*
X169265000Y-101767433D01*
G37*
G36*
X169265000Y-103215233D02*
G01*
X168195000Y-103215233D01*
X168195000Y-101967433D01*
X169265000Y-101967433D01*
X169265000Y-103215233D01*
G37*
G36*
X169265000Y-104663033D02*
G01*
X168195000Y-104663033D01*
X168195000Y-103415233D01*
X169265000Y-103415233D01*
X169265000Y-104663033D01*
G37*
G36*
X170535000Y-100319633D02*
G01*
X169465000Y-100319633D01*
X169465000Y-99071833D01*
X170535000Y-99071833D01*
X170535000Y-100319633D01*
G37*
G36*
X170535000Y-101767433D02*
G01*
X169465000Y-101767433D01*
X169465000Y-100519633D01*
X170535000Y-100519633D01*
X170535000Y-101767433D01*
G37*
G36*
X170535000Y-103215233D02*
G01*
X169465000Y-103215233D01*
X169465000Y-101967433D01*
X170535000Y-101967433D01*
X170535000Y-103215233D01*
G37*
G36*
X170535000Y-104663033D02*
G01*
X169465000Y-104663033D01*
X169465000Y-103415233D01*
X170535000Y-103415233D01*
X170535000Y-104663033D01*
G37*
G36*
X171805000Y-100319633D02*
G01*
X170735000Y-100319633D01*
X170735000Y-99071833D01*
X171805000Y-99071833D01*
X171805000Y-100319633D01*
G37*
G36*
X171805000Y-101767433D02*
G01*
X170735000Y-101767433D01*
X170735000Y-100519633D01*
X171805000Y-100519633D01*
X171805000Y-101767433D01*
G37*
G36*
X171805000Y-103215233D02*
G01*
X170735000Y-103215233D01*
X170735000Y-101967433D01*
X171805000Y-101967433D01*
X171805000Y-103215233D01*
G37*
G36*
X171805000Y-104663033D02*
G01*
X170735000Y-104663033D01*
X170735000Y-103415233D01*
X171805000Y-103415233D01*
X171805000Y-104663033D01*
G37*
%TO.C,U4*%
G36*
X117514811Y-100352200D02*
G01*
X116444811Y-100352200D01*
X116444811Y-99104400D01*
X117514811Y-99104400D01*
X117514811Y-100352200D01*
G37*
G36*
X117514811Y-101800000D02*
G01*
X116444811Y-101800000D01*
X116444811Y-100552200D01*
X117514811Y-100552200D01*
X117514811Y-101800000D01*
G37*
G36*
X117514811Y-103247800D02*
G01*
X116444811Y-103247800D01*
X116444811Y-102000000D01*
X117514811Y-102000000D01*
X117514811Y-103247800D01*
G37*
G36*
X117514811Y-104695600D02*
G01*
X116444811Y-104695600D01*
X116444811Y-103447800D01*
X117514811Y-103447800D01*
X117514811Y-104695600D01*
G37*
G36*
X118784811Y-100352200D02*
G01*
X117714811Y-100352200D01*
X117714811Y-99104400D01*
X118784811Y-99104400D01*
X118784811Y-100352200D01*
G37*
G36*
X118784811Y-101800000D02*
G01*
X117714811Y-101800000D01*
X117714811Y-100552200D01*
X118784811Y-100552200D01*
X118784811Y-101800000D01*
G37*
G36*
X118784811Y-103247800D02*
G01*
X117714811Y-103247800D01*
X117714811Y-102000000D01*
X118784811Y-102000000D01*
X118784811Y-103247800D01*
G37*
G36*
X118784811Y-104695600D02*
G01*
X117714811Y-104695600D01*
X117714811Y-103447800D01*
X118784811Y-103447800D01*
X118784811Y-104695600D01*
G37*
G36*
X120054811Y-100352200D02*
G01*
X118984811Y-100352200D01*
X118984811Y-99104400D01*
X120054811Y-99104400D01*
X120054811Y-100352200D01*
G37*
G36*
X120054811Y-101800000D02*
G01*
X118984811Y-101800000D01*
X118984811Y-100552200D01*
X120054811Y-100552200D01*
X120054811Y-101800000D01*
G37*
G36*
X120054811Y-103247800D02*
G01*
X118984811Y-103247800D01*
X118984811Y-102000000D01*
X120054811Y-102000000D01*
X120054811Y-103247800D01*
G37*
G36*
X120054811Y-104695600D02*
G01*
X118984811Y-104695600D01*
X118984811Y-103447800D01*
X120054811Y-103447800D01*
X120054811Y-104695600D01*
G37*
%TD*%
D11*
%TO.C,D4*%
X185900000Y-112450000D03*
X185900000Y-105450000D03*
%TD*%
%TO.C,D1*%
X185900000Y-95300000D03*
X185900000Y-102300000D03*
%TD*%
D12*
%TO.C,R11*%
X106712500Y-104950000D03*
X106712500Y-106600000D03*
%TD*%
D13*
%TO.C,R25*%
X171250000Y-110900000D03*
X172900000Y-110900000D03*
%TD*%
D14*
%TO.C,C14*%
X118800000Y-107450000D03*
X118800000Y-109000000D03*
%TD*%
D15*
%TO.C,D5*%
X100300000Y-102920000D03*
X100300000Y-101600000D03*
%TD*%
D16*
%TO.C,D19*%
X158700000Y-84100000D03*
X158700000Y-82600000D03*
%TD*%
D14*
%TO.C,C6*%
X103800000Y-102425000D03*
X103800000Y-103975000D03*
%TD*%
D17*
%TO.C,C26*%
X173950000Y-100567433D03*
X175500000Y-100567433D03*
%TD*%
D18*
%TO.C,J3*%
X96200000Y-82829967D03*
X96200000Y-83629968D03*
D19*
X96200000Y-84779968D03*
X96200000Y-85779968D03*
X96200000Y-86279968D03*
X96200000Y-87279968D03*
D18*
X96200000Y-89229969D03*
X96200000Y-88429968D03*
D19*
X96200000Y-87779967D03*
X96200000Y-86779969D03*
X96200000Y-85279967D03*
X96200000Y-84279969D03*
%TD*%
D13*
%TO.C,R22*%
X119925000Y-110900000D03*
X121575000Y-110900000D03*
%TD*%
D20*
%TO.C,U2*%
X106680000Y-99780000D03*
X106680000Y-100900000D03*
X106680000Y-102020000D03*
X107800000Y-99780000D03*
X107800000Y-100900000D03*
X107800000Y-102020000D03*
X108920000Y-99780000D03*
X108920000Y-100900000D03*
X108920000Y-102020000D03*
D21*
X105350000Y-99400000D03*
X105350000Y-99900000D03*
X105350000Y-100400000D03*
X105350000Y-100900000D03*
X105350000Y-101400000D03*
X105350000Y-101900000D03*
X105350000Y-102400000D03*
D22*
X106300000Y-103350000D03*
X106800000Y-103350000D03*
X107300000Y-103350000D03*
X107800000Y-103350000D03*
X108300000Y-103350000D03*
X108800000Y-103350000D03*
X109300000Y-103350000D03*
D21*
X110250000Y-102400000D03*
X110250000Y-101900000D03*
X110250000Y-101400000D03*
X110250000Y-100900000D03*
X110250000Y-100400000D03*
X110250000Y-99900000D03*
X110250000Y-99400000D03*
D22*
X109300000Y-98450000D03*
X108800000Y-98450000D03*
X108300000Y-98450000D03*
X107800000Y-98450000D03*
X107300000Y-98450000D03*
X106800000Y-98450000D03*
X106300000Y-98450000D03*
%TD*%
D13*
%TO.C,R15*%
X103550000Y-107300000D03*
X105200000Y-107300000D03*
%TD*%
%TO.C,R23*%
X172400000Y-106967433D03*
X174050000Y-106967433D03*
%TD*%
D23*
%TO.C,U5*%
X172451100Y-104618126D03*
X172451100Y-104118000D03*
X172451100Y-103617874D03*
X172451100Y-103117748D03*
X172451100Y-102617622D03*
X172451100Y-102117496D03*
X172451100Y-101617370D03*
X172451100Y-101117244D03*
X172451100Y-100617118D03*
X172451100Y-100116992D03*
X172451100Y-99616866D03*
X172451100Y-99116740D03*
D24*
X171750441Y-98413033D03*
X171250315Y-98413033D03*
X170750189Y-98413033D03*
X170250063Y-98413033D03*
X169749937Y-98413033D03*
X169249811Y-98413033D03*
X168749685Y-98413033D03*
X168249559Y-98413033D03*
D23*
X167548900Y-99116740D03*
X167548900Y-99616866D03*
X167548900Y-100116992D03*
X167548900Y-100617118D03*
X167548900Y-101117244D03*
X167548900Y-101617370D03*
X167548900Y-102117496D03*
X167548900Y-102617622D03*
X167548900Y-103117748D03*
X167548900Y-103617874D03*
X167548900Y-104118000D03*
X167548900Y-104618126D03*
D24*
X168249559Y-105321833D03*
X168749685Y-105321833D03*
X169249811Y-105321833D03*
X169749937Y-105321833D03*
X170250063Y-105321833D03*
X170750189Y-105321833D03*
X171250315Y-105321833D03*
X171750441Y-105321833D03*
D25*
X170000000Y-101867433D03*
%TD*%
D15*
%TO.C,D2*%
X98300000Y-104560000D03*
X98300000Y-103240000D03*
%TD*%
D18*
%TO.C,J2*%
X96223920Y-97649999D03*
X96223920Y-98450000D03*
D19*
X96223920Y-99600000D03*
X96223920Y-100600000D03*
X96223920Y-101100000D03*
X96223920Y-102100000D03*
D18*
X96223920Y-104050001D03*
X96223920Y-103250000D03*
D19*
X96223920Y-102599999D03*
X96223920Y-101600001D03*
X96223920Y-100099999D03*
X96223920Y-99100001D03*
%TD*%
D16*
%TO.C,D13*%
X190900000Y-81700000D03*
X190900000Y-80200000D03*
%TD*%
D26*
%TO.C,C4*%
X129250000Y-93650000D03*
X127700000Y-93650000D03*
%TD*%
D27*
%TO.C,Q1*%
X132425000Y-109850000D03*
X132425000Y-111750000D03*
X134425000Y-110800000D03*
%TD*%
D28*
%TO.C,R10*%
X109962500Y-105000000D03*
X108312500Y-105000000D03*
%TD*%
D13*
%TO.C,R19*%
X134400000Y-85500000D03*
X136050000Y-85500000D03*
%TD*%
D28*
%TO.C,R17*%
X159000000Y-107400000D03*
X157350000Y-107400000D03*
%TD*%
D17*
%TO.C,C18*%
X124075000Y-107000000D03*
X125625000Y-107000000D03*
%TD*%
D29*
%TO.C,F1*%
X190714905Y-102280553D03*
X190714905Y-99380553D03*
%TD*%
D30*
%TO.C,D16*%
X127550000Y-95450000D03*
X129050000Y-95450000D03*
%TD*%
D31*
%TO.C,D17*%
X187400000Y-91400000D03*
X187400000Y-87000000D03*
%TD*%
D32*
%TO.C,U3*%
X144100000Y-88600000D03*
X144100000Y-90000000D03*
X144100000Y-91400000D03*
X145500000Y-88600000D03*
X145500000Y-90000000D03*
X145500000Y-91400000D03*
X146900000Y-88600000D03*
X146900000Y-90000000D03*
X146900000Y-91400000D03*
D33*
X138250000Y-82280000D03*
X138250000Y-83550000D03*
X138250000Y-84820000D03*
X138250000Y-86090000D03*
X138250000Y-87360000D03*
X138250000Y-88630000D03*
X138250000Y-89900000D03*
X138250000Y-91170000D03*
X138250000Y-92440000D03*
X138250000Y-93710000D03*
X138250000Y-94980000D03*
X138250000Y-96250000D03*
X138250000Y-97520000D03*
X138250000Y-98790000D03*
D34*
X140015000Y-100040000D03*
X141285000Y-100040000D03*
X142555000Y-100040000D03*
X143825000Y-100040000D03*
X145095000Y-100040000D03*
X146365000Y-100040000D03*
X147635000Y-100040000D03*
X148905000Y-100040000D03*
X150175000Y-100040000D03*
X151445000Y-100040000D03*
X152715000Y-100040000D03*
X153985000Y-100040000D03*
D33*
X155750000Y-98790000D03*
X155750000Y-97520000D03*
X155750000Y-96250000D03*
X155750000Y-94980000D03*
X155750000Y-93710000D03*
X155750000Y-92440000D03*
X155750000Y-91170000D03*
X155750000Y-89900000D03*
X155750000Y-88630000D03*
X155750000Y-87360000D03*
X155750000Y-86090000D03*
X155750000Y-84820000D03*
X155750000Y-83550000D03*
X155750000Y-82280000D03*
%TD*%
D35*
%TO.C,R18*%
X160600000Y-84125000D03*
X160600000Y-82475000D03*
%TD*%
D36*
%TO.C,C1*%
X100500000Y-92800000D03*
X100500000Y-91250000D03*
%TD*%
%TO.C,C24*%
X174000000Y-103717433D03*
X174000000Y-102167433D03*
%TD*%
D37*
%TO.C,C19*%
X124000000Y-98000000D03*
X124000000Y-94679000D03*
%TD*%
D28*
%TO.C,R9*%
X132500000Y-95600000D03*
X130850000Y-95600000D03*
%TD*%
D17*
%TO.C,C17*%
X122250000Y-100504400D03*
X123800000Y-100504400D03*
%TD*%
D14*
%TO.C,C22*%
X166000000Y-105600000D03*
X166000000Y-107150000D03*
%TD*%
D36*
%TO.C,C3*%
X123800000Y-91275000D03*
X123800000Y-89725000D03*
%TD*%
D28*
%TO.C,R14*%
X105200000Y-105700000D03*
X103550000Y-105700000D03*
%TD*%
%TO.C,R8*%
X132500000Y-97300000D03*
X130850000Y-97300000D03*
%TD*%
D17*
%TO.C,C20*%
X123775000Y-109000000D03*
X125325000Y-109000000D03*
%TD*%
D38*
%TO.C,J10*%
X183375000Y-87300000D03*
X183375000Y-86300000D03*
X183375000Y-85300000D03*
X183375000Y-84300000D03*
X183375000Y-83300000D03*
X183375000Y-82300000D03*
D39*
X180850000Y-88600000D03*
X180850000Y-81000000D03*
%TD*%
D28*
%TO.C,R13*%
X162075000Y-107350000D03*
X160425000Y-107350000D03*
%TD*%
D14*
%TO.C,C25*%
X175600000Y-102125000D03*
X175600000Y-103675000D03*
%TD*%
%TO.C,C11*%
X157400000Y-109000000D03*
X157400000Y-110550000D03*
%TD*%
D40*
%TO.C,D10*%
X98450000Y-89000000D03*
X98450000Y-92360000D03*
%TD*%
D13*
%TO.C,R21*%
X120425000Y-109000000D03*
X122075000Y-109000000D03*
%TD*%
D16*
%TO.C,D14*%
X190900000Y-90700000D03*
X190900000Y-89200000D03*
%TD*%
D14*
%TO.C,C5*%
X102100000Y-102400000D03*
X102100000Y-103950000D03*
%TD*%
%TO.C,C13*%
X114300000Y-105600000D03*
X114300000Y-107150000D03*
%TD*%
D36*
%TO.C,C8*%
X134400000Y-83950000D03*
X134400000Y-82400000D03*
%TD*%
D15*
%TO.C,D3*%
X98300000Y-82300000D03*
X98300000Y-83620000D03*
%TD*%
D31*
%TO.C,D11*%
X180000000Y-110100000D03*
X180000000Y-105700000D03*
%TD*%
D41*
%TO.C,U1*%
X126100000Y-86700000D03*
X126100000Y-89000000D03*
X126100000Y-91300000D03*
D42*
X132400000Y-89000000D03*
%TD*%
D43*
%TO.C,J7*%
X110075000Y-82550000D03*
X110075000Y-83550000D03*
X110075000Y-84550000D03*
X110075000Y-85550000D03*
X110075000Y-86550000D03*
X110075000Y-87550000D03*
D44*
X112600000Y-81250000D03*
X112600000Y-88850000D03*
%TD*%
D12*
%TO.C,R6*%
X190850000Y-85875000D03*
X190850000Y-87525000D03*
%TD*%
D36*
%TO.C,C15*%
X122300000Y-103854400D03*
X122300000Y-102304400D03*
%TD*%
D12*
%TO.C,R5*%
X190850000Y-76800000D03*
X190850000Y-78450000D03*
%TD*%
D17*
%TO.C,C29*%
X175150000Y-108867433D03*
X176700000Y-108867433D03*
%TD*%
D15*
%TO.C,D7*%
X98300000Y-99480000D03*
X98300000Y-100800000D03*
%TD*%
D14*
%TO.C,C10*%
X135000000Y-87125000D03*
X135000000Y-88675000D03*
%TD*%
D27*
%TO.C,Q2*%
X161800000Y-111750000D03*
X161800000Y-109850000D03*
X159800000Y-110800000D03*
%TD*%
D35*
%TO.C,R3*%
X100400000Y-82300000D03*
X100400000Y-80650000D03*
%TD*%
D45*
%TO.C,J9*%
X173000000Y-83600000D03*
X173000000Y-85600000D03*
X173000000Y-87600000D03*
D46*
X175250000Y-81200000D03*
X175250000Y-90000000D03*
%TD*%
D23*
%TO.C,U4*%
X120700911Y-104650693D03*
X120700911Y-104150567D03*
X120700911Y-103650441D03*
X120700911Y-103150315D03*
X120700911Y-102650189D03*
X120700911Y-102150063D03*
X120700911Y-101649937D03*
X120700911Y-101149811D03*
X120700911Y-100649685D03*
X120700911Y-100149559D03*
X120700911Y-99649433D03*
X120700911Y-99149307D03*
D24*
X120000252Y-98445600D03*
X119500126Y-98445600D03*
X119000000Y-98445600D03*
X118499874Y-98445600D03*
X117999748Y-98445600D03*
X117499622Y-98445600D03*
X116999496Y-98445600D03*
X116499370Y-98445600D03*
D23*
X115798711Y-99149307D03*
X115798711Y-99649433D03*
X115798711Y-100149559D03*
X115798711Y-100649685D03*
X115798711Y-101149811D03*
X115798711Y-101649937D03*
X115798711Y-102150063D03*
X115798711Y-102650189D03*
X115798711Y-103150315D03*
X115798711Y-103650441D03*
X115798711Y-104150567D03*
X115798711Y-104650693D03*
D24*
X116499370Y-105354400D03*
X116999496Y-105354400D03*
X117499622Y-105354400D03*
X117999748Y-105354400D03*
X118499874Y-105354400D03*
X119000000Y-105354400D03*
X119500126Y-105354400D03*
X120000252Y-105354400D03*
D25*
X118249811Y-101900000D03*
%TD*%
D30*
%TO.C,D15*%
X127600000Y-97550000D03*
X129100000Y-97550000D03*
%TD*%
D17*
%TO.C,C21*%
X123075000Y-110900000D03*
X124625000Y-110900000D03*
%TD*%
D12*
%TO.C,R4*%
X100500000Y-88000000D03*
X100500000Y-89650000D03*
%TD*%
D13*
%TO.C,R20*%
X120875000Y-107000000D03*
X122525000Y-107000000D03*
%TD*%
D14*
%TO.C,C23*%
X170200000Y-107267433D03*
X170200000Y-108817433D03*
%TD*%
D37*
%TO.C,C28*%
X175200000Y-96360500D03*
X175200000Y-93039500D03*
%TD*%
D40*
%TO.C,D9*%
X98450000Y-97700000D03*
X98450000Y-94340000D03*
%TD*%
D15*
%TO.C,D6*%
X100450000Y-83980000D03*
X100450000Y-85300000D03*
%TD*%
%TO.C,D8*%
X98300000Y-87210000D03*
X98300000Y-85890000D03*
%TD*%
D13*
%TO.C,R24*%
X171950000Y-108867433D03*
X173600000Y-108867433D03*
%TD*%
D17*
%TO.C,C30*%
X174450000Y-110900000D03*
X176000000Y-110900000D03*
%TD*%
D29*
%TO.C,F2*%
X190678753Y-105880972D03*
X190678753Y-108780972D03*
%TD*%
D47*
%TO.C,J6*%
X120700000Y-87650000D03*
X120700000Y-85650000D03*
X120700000Y-83650000D03*
D48*
X118450000Y-90050000D03*
X118450000Y-81250000D03*
%TD*%
D12*
%TO.C,R2*%
X98100000Y-106250000D03*
X98100000Y-107900000D03*
%TD*%
D14*
%TO.C,C2*%
X100500000Y-94400000D03*
X100500000Y-95950000D03*
%TD*%
D17*
%TO.C,C27*%
X173950000Y-105300000D03*
X175500000Y-105300000D03*
%TD*%
D35*
%TO.C,R1*%
X100400000Y-99500000D03*
X100400000Y-97850000D03*
%TD*%
D31*
%TO.C,D12*%
X180000000Y-97500000D03*
X180000000Y-101900000D03*
%TD*%
D13*
%TO.C,R7*%
X129350000Y-84000000D03*
X131000000Y-84000000D03*
%TD*%
D31*
%TO.C,D18*%
X187400000Y-82250000D03*
X187400000Y-77850000D03*
%TD*%
D14*
%TO.C,C12*%
X136875000Y-109000000D03*
X136875000Y-110550000D03*
%TD*%
D36*
%TO.C,C9*%
X136000000Y-83950000D03*
X136000000Y-82400000D03*
%TD*%
D13*
%TO.C,R16*%
X135250000Y-107350000D03*
X136900000Y-107350000D03*
%TD*%
D17*
%TO.C,C16*%
X123900000Y-102204400D03*
X125450000Y-102204400D03*
%TD*%
D36*
%TO.C,C7*%
X132700000Y-83950000D03*
X132700000Y-82400000D03*
%TD*%
D13*
%TO.C,R12*%
X132075000Y-107350000D03*
X133725000Y-107350000D03*
%TD*%
M02*
