%TF.GenerationSoftware,KiCad,Pcbnew,9.0.7*%
%TF.CreationDate,2026-02-21T01:54:14-05:00*%
%TF.ProjectId,roamr-motors,726f616d-722d-46d6-9f74-6f72732e6b69,rev?*%
%TF.SameCoordinates,Original*%
%TF.FileFunction,Other,User*%
%FSLAX46Y46*%
G04 Gerber Fmt 4.6, Leading zero omitted, Abs format (unit mm)*
G04 Created by KiCad (PCBNEW 9.0.7) date 2026-02-21 01:54:14*
%MOMM*%
%LPD*%
G01*
G04 APERTURE LIST*
%ADD10C,0.050000*%
G04 APERTURE END LIST*
D10*
%TO.C,TP2*%
X121300000Y-85500000D02*
G75*
G02*
X118800000Y-85500000I-1250000J0D01*
G01*
X118800000Y-85500000D02*
G75*
G02*
X121300000Y-85500000I1250000J0D01*
G01*
%TO.C,TP4*%
X117750000Y-85500000D02*
G75*
G02*
X115250000Y-85500000I-1250000J0D01*
G01*
X115250000Y-85500000D02*
G75*
G02*
X117750000Y-85500000I1250000J0D01*
G01*
%TO.C,TP1*%
X124850000Y-85500000D02*
G75*
G02*
X122350000Y-85500000I-1250000J0D01*
G01*
X122350000Y-85500000D02*
G75*
G02*
X124850000Y-85500000I1250000J0D01*
G01*
%TO.C,TP10*%
X111400000Y-79000000D02*
G75*
G02*
X108900000Y-79000000I-1250000J0D01*
G01*
X108900000Y-79000000D02*
G75*
G02*
X111400000Y-79000000I1250000J0D01*
G01*
%TO.C,TP7*%
X108050000Y-93100000D02*
G75*
G02*
X105550000Y-93100000I-1250000J0D01*
G01*
X105550000Y-93100000D02*
G75*
G02*
X108050000Y-93100000I1250000J0D01*
G01*
%TO.C,TP3*%
X128550000Y-85600000D02*
G75*
G02*
X126050000Y-85600000I-1250000J0D01*
G01*
X126050000Y-85600000D02*
G75*
G02*
X128550000Y-85600000I1250000J0D01*
G01*
%TO.C,TP8*%
X118500000Y-79000000D02*
G75*
G02*
X116000000Y-79000000I-1250000J0D01*
G01*
X116000000Y-79000000D02*
G75*
G02*
X118500000Y-79000000I1250000J0D01*
G01*
%TO.C,TP12*%
X167950000Y-96900000D02*
G75*
G02*
X165450000Y-96900000I-1250000J0D01*
G01*
X165450000Y-96900000D02*
G75*
G02*
X167950000Y-96900000I1250000J0D01*
G01*
%TO.C,TP6*%
X110550000Y-95500000D02*
G75*
G02*
X108050000Y-95500000I-1250000J0D01*
G01*
X108050000Y-95500000D02*
G75*
G02*
X110550000Y-95500000I1250000J0D01*
G01*
%TO.C,TP11*%
X113550000Y-97600000D02*
G75*
G02*
X111050000Y-97600000I-1250000J0D01*
G01*
X111050000Y-97600000D02*
G75*
G02*
X113550000Y-97600000I1250000J0D01*
G01*
%TO.C,TP9*%
X114950000Y-79000000D02*
G75*
G02*
X112450000Y-79000000I-1250000J0D01*
G01*
X112450000Y-79000000D02*
G75*
G02*
X114950000Y-79000000I1250000J0D01*
G01*
%TD*%
M02*
