%TF.GenerationSoftware,KiCad,Pcbnew,9.0.7*%
%TF.CreationDate,2026-02-21T00:07:38-05:00*%
%TF.ProjectId,roamr-power,726f616d-722d-4706-9f77-65722e6b6963,rev?*%
%TF.SameCoordinates,Original*%
%TF.FileFunction,Paste,Top*%
%TF.FilePolarity,Positive*%
%FSLAX46Y46*%
G04 Gerber Fmt 4.6, Leading zero omitted, Abs format (unit mm)*
G04 Created by KiCad (PCBNEW 9.0.7) date 2026-02-21 00:07:38*
%MOMM*%
%LPD*%
G01*
G04 APERTURE LIST*
G04 Aperture macros list*
%AMRoundRect*
0 Rectangle with rounded corners*
0 $1 Rounding radius*
0 $2 $3 $4 $5 $6 $7 $8 $9 X,Y pos of 4 corners*
0 Add a 4 corners polygon primitive as box body*
4,1,4,$2,$3,$4,$5,$6,$7,$8,$9,$2,$3,0*
0 Add four circle primitives for the rounded corners*
1,1,$1+$1,$2,$3*
1,1,$1+$1,$4,$5*
1,1,$1+$1,$6,$7*
1,1,$1+$1,$8,$9*
0 Add four rect primitives between the rounded corners*
20,1,$1+$1,$2,$3,$4,$5,0*
20,1,$1+$1,$4,$5,$6,$7,0*
20,1,$1+$1,$6,$7,$8,$9,0*
20,1,$1+$1,$8,$9,$2,$3,0*%
G04 Aperture macros list end*
%ADD10C,0.000000*%
%ADD11R,3.150000X2.200000*%
%ADD12RoundRect,0.250000X0.475000X-0.250000X0.475000X0.250000X-0.475000X0.250000X-0.475000X-0.250000X0*%
%ADD13R,0.950000X0.900000*%
%ADD14RoundRect,0.200000X0.275000X-0.200000X0.275000X0.200000X-0.275000X0.200000X-0.275000X-0.200000X0*%
%ADD15R,1.200000X0.800000*%
%ADD16R,1.200000X0.760000*%
%ADD17R,1.200000X0.700000*%
%ADD18R,0.900000X0.600000*%
%ADD19R,1.200000X0.600000*%
%ADD20RoundRect,0.200000X-0.275000X0.200000X-0.275000X-0.200000X0.275000X-0.200000X0.275000X0.200000X0*%
%ADD21RoundRect,0.225000X0.250000X-0.225000X0.250000X0.225000X-0.250000X0.225000X-0.250000X-0.225000X0*%
%ADD22RoundRect,0.225000X-0.225000X-0.250000X0.225000X-0.250000X0.225000X0.250000X-0.225000X0.250000X0*%
%ADD23RoundRect,0.225000X0.225000X0.250000X-0.225000X0.250000X-0.225000X-0.250000X0.225000X-0.250000X0*%
%ADD24R,5.001900X2.255400*%
%ADD25R,3.251200X1.778000*%
%ADD26R,0.599999X0.249999*%
%ADD27R,0.249999X0.599999*%
%ADD28RoundRect,0.060000X0.140000X-0.989999X0.140000X0.989999X-0.140000X0.989999X-0.140000X-0.989999X0*%
%ADD29RoundRect,0.037500X0.262500X0.087500X-0.262500X0.087500X-0.262500X-0.087500X0.262500X-0.087500X0*%
%ADD30RoundRect,0.225000X-0.250000X0.225000X-0.250000X-0.225000X0.250000X-0.225000X0.250000X0.225000X0*%
%ADD31R,1.900000X4.150000*%
%ADD32R,2.100000X1.400000*%
%ADD33R,1.850000X3.450000*%
%ADD34RoundRect,0.200000X-0.200000X-0.275000X0.200000X-0.275000X0.200000X0.275000X-0.200000X0.275000X0*%
%ADD35R,0.700000X0.300000*%
%ADD36R,1.000000X1.700000*%
%ADD37RoundRect,0.200000X0.200000X0.275000X-0.200000X0.275000X-0.200000X-0.275000X0.200000X-0.275000X0*%
G04 APERTURE END LIST*
D10*
%TO.C,U1*%
G36*
X138500002Y-67050401D02*
G01*
X138500002Y-67900402D01*
X138450002Y-67950401D01*
X138150003Y-67950401D01*
X138100003Y-67900402D01*
X138100003Y-67050401D01*
X138150003Y-67000401D01*
X138450002Y-67000401D01*
X138500002Y-67050401D01*
G37*
G36*
X138500002Y-65900401D02*
G01*
X138500002Y-66750401D01*
X138450002Y-66800401D01*
X138150003Y-66800401D01*
X138100003Y-66750401D01*
X138100003Y-65900401D01*
X138150003Y-65850401D01*
X138450002Y-65850401D01*
X138500002Y-65900401D01*
G37*
G36*
X139005002Y-68560400D02*
G01*
X139005002Y-69210401D01*
X138955002Y-69260401D01*
X138805003Y-69260401D01*
X138755003Y-69210401D01*
X138755003Y-68560400D01*
X138805003Y-68510400D01*
X138955002Y-68510400D01*
X139005002Y-68560400D01*
G37*
G36*
X139005002Y-67610402D02*
G01*
X139005002Y-68260401D01*
X138955002Y-68310401D01*
X138805003Y-68310401D01*
X138755003Y-68260401D01*
X138755003Y-67610402D01*
X138805003Y-67560402D01*
X138955002Y-67560402D01*
X139005002Y-67610402D01*
G37*
G36*
X139660002Y-65905402D02*
G01*
X139660002Y-66630402D01*
X139710002Y-66680401D01*
X140170001Y-66680401D01*
X140220001Y-66730401D01*
X140220001Y-66880401D01*
X140170001Y-66930401D01*
X139660002Y-66930401D01*
X139660002Y-67180400D01*
X140170001Y-67180400D01*
X140220001Y-67230400D01*
X140220001Y-67380400D01*
X140170001Y-67430400D01*
X139660002Y-67430400D01*
X139660002Y-67680402D01*
X140170001Y-67680402D01*
X140220001Y-67730402D01*
X140220001Y-67880402D01*
X140170001Y-67930402D01*
X139660002Y-67930402D01*
X139660002Y-67955400D01*
X139310003Y-67955400D01*
X139260003Y-67905400D01*
X139260003Y-65905402D01*
X139310003Y-65855402D01*
X139610002Y-65855402D01*
X139660002Y-65905402D01*
G37*
%TD*%
D11*
%TO.C,D6*%
X81600000Y-70500000D03*
X81600000Y-63500000D03*
%TD*%
D12*
%TO.C,C6*%
X139800000Y-64450000D03*
X139800000Y-62550000D03*
%TD*%
D13*
%TO.C,D8*%
X156000000Y-85500000D03*
X156000000Y-84000000D03*
%TD*%
%TO.C,D7*%
X155750000Y-55000000D03*
X155750000Y-56500000D03*
%TD*%
%TO.C,D3*%
X104100000Y-87705000D03*
X104100000Y-86205000D03*
%TD*%
%TO.C,D2*%
X107100000Y-87600000D03*
X107100000Y-86100000D03*
%TD*%
D14*
%TO.C,R16*%
X78300000Y-79250000D03*
X78300000Y-80900000D03*
%TD*%
D15*
%TO.C,J4*%
X75480000Y-75750000D03*
D16*
X75480000Y-76980000D03*
D17*
X75480000Y-79000000D03*
D15*
X75480000Y-81250000D03*
D16*
X75480000Y-80020000D03*
D17*
X75480000Y-78000000D03*
%TD*%
D18*
%TO.C,Q1*%
X98900000Y-75150000D03*
X98900000Y-77050000D03*
X101300000Y-76100000D03*
%TD*%
D19*
%TO.C,U2*%
X101500000Y-73350000D03*
X101500000Y-72400000D03*
X101500000Y-71450000D03*
X99000000Y-71450000D03*
X99000000Y-72400000D03*
X99000000Y-73350000D03*
%TD*%
D14*
%TO.C,R6*%
X138000000Y-64550000D03*
X138000000Y-62900000D03*
%TD*%
D20*
%TO.C,R8*%
X101600000Y-85700000D03*
X101600000Y-87350000D03*
%TD*%
%TO.C,R10*%
X153500000Y-84100000D03*
X153500000Y-85750000D03*
%TD*%
D21*
%TO.C,C9*%
X139750000Y-60975000D03*
X139750000Y-59425000D03*
%TD*%
D20*
%TO.C,R12*%
X96300000Y-60675000D03*
X96300000Y-62325000D03*
%TD*%
D22*
%TO.C,C1*%
X141725000Y-68500000D03*
X143275000Y-68500000D03*
%TD*%
D14*
%TO.C,R11*%
X94500000Y-62325000D03*
X94500000Y-60675000D03*
%TD*%
D23*
%TO.C,C14*%
X97000000Y-75400000D03*
X95450000Y-75400000D03*
%TD*%
D24*
%TO.C,L2*%
X133500000Y-58755400D03*
X133500000Y-63500000D03*
%TD*%
D25*
%TO.C,L1*%
X141000000Y-71300000D03*
X141000000Y-76583200D03*
%TD*%
D26*
%TO.C,U1*%
X137110002Y-66805400D03*
X137110002Y-67305401D03*
X137110002Y-67805401D03*
X137110002Y-68305402D03*
D27*
X137580001Y-68955401D03*
X139380003Y-68955401D03*
D28*
X139460002Y-66905401D03*
D29*
X139910002Y-66805401D03*
X139910002Y-67305401D03*
X139910002Y-67805401D03*
D27*
X137580001Y-66155401D03*
%TD*%
D21*
%TO.C,C5*%
X141600000Y-64475000D03*
X141600000Y-62925000D03*
%TD*%
D30*
%TO.C,C10*%
X141700000Y-79300000D03*
X141700000Y-80850000D03*
%TD*%
D20*
%TO.C,R13*%
X88700000Y-60650000D03*
X88700000Y-62300000D03*
%TD*%
D31*
%TO.C,C8*%
X113500000Y-63750000D03*
X113500000Y-56800000D03*
%TD*%
D32*
%TO.C,D1*%
X81600000Y-78500000D03*
X81600000Y-74100000D03*
%TD*%
D20*
%TO.C,R15*%
X78300000Y-76175000D03*
X78300000Y-77825000D03*
%TD*%
D33*
%TO.C,C12*%
X89800000Y-75600000D03*
X89800000Y-70100000D03*
%TD*%
D14*
%TO.C,R4*%
X134800000Y-69650000D03*
X134800000Y-68000000D03*
%TD*%
D30*
%TO.C,C13*%
X103200000Y-73600000D03*
X103200000Y-75150000D03*
%TD*%
D14*
%TO.C,R5*%
X153250000Y-56750000D03*
X153250000Y-55100000D03*
%TD*%
D30*
%TO.C,C4*%
X140100000Y-79300000D03*
X140100000Y-80850000D03*
%TD*%
D21*
%TO.C,C3*%
X133100483Y-69611497D03*
X133100483Y-68061497D03*
%TD*%
D14*
%TO.C,R14*%
X87000000Y-62325000D03*
X87000000Y-60675000D03*
%TD*%
D21*
%TO.C,C7*%
X138000000Y-61300000D03*
X138000000Y-59750000D03*
%TD*%
D31*
%TO.C,C11*%
X124500000Y-63750000D03*
X124500000Y-56800000D03*
%TD*%
D20*
%TO.C,R7*%
X109600000Y-85700000D03*
X109600000Y-87350000D03*
%TD*%
D32*
%TO.C,D5*%
X167500000Y-80700000D03*
X167500000Y-76300000D03*
%TD*%
D34*
%TO.C,R9*%
X95350000Y-77050000D03*
X97000000Y-77050000D03*
%TD*%
D35*
%TO.C,U3*%
X90550000Y-62150000D03*
X90550000Y-62650000D03*
X90550000Y-63150000D03*
X90550000Y-63650000D03*
X92650000Y-63650000D03*
X92650000Y-63150000D03*
X92650000Y-62650000D03*
X92650000Y-62150000D03*
D36*
X91600000Y-62900000D03*
%TD*%
D37*
%TO.C,R2*%
X97325000Y-72400000D03*
X95675000Y-72400000D03*
%TD*%
D34*
%TO.C,R1*%
X133275000Y-66500000D03*
X134925000Y-66500000D03*
%TD*%
D32*
%TO.C,D4*%
X167500000Y-64100000D03*
X167500000Y-59700000D03*
%TD*%
D37*
%TO.C,R3*%
X131550000Y-68000000D03*
X129900000Y-68000000D03*
%TD*%
M02*
