%TF.GenerationSoftware,KiCad,Pcbnew,9.0.7*%
%TF.CreationDate,2026-02-21T00:07:38-05:00*%
%TF.ProjectId,roamr-power,726f616d-722d-4706-9f77-65722e6b6963,rev?*%
%TF.SameCoordinates,Original*%
%TF.FileFunction,Legend,Bot*%
%TF.FilePolarity,Positive*%
%FSLAX46Y46*%
G04 Gerber Fmt 4.6, Leading zero omitted, Abs format (unit mm)*
G04 Created by KiCad (PCBNEW 9.0.7) date 2026-02-21 00:07:38*
%MOMM*%
%LPD*%
G01*
G04 APERTURE LIST*
%ADD10C,0.100000*%
G04 APERTURE END LIST*
D10*
X172496115Y-81042587D02*
X172496115Y-80042587D01*
X172496115Y-80042587D02*
X172115163Y-80042587D01*
X172115163Y-80042587D02*
X172019925Y-80090206D01*
X172019925Y-80090206D02*
X171972306Y-80137825D01*
X171972306Y-80137825D02*
X171924687Y-80233063D01*
X171924687Y-80233063D02*
X171924687Y-80375920D01*
X171924687Y-80375920D02*
X171972306Y-80471158D01*
X171972306Y-80471158D02*
X172019925Y-80518777D01*
X172019925Y-80518777D02*
X172115163Y-80566396D01*
X172115163Y-80566396D02*
X172496115Y-80566396D01*
X171353258Y-81042587D02*
X171448496Y-80994968D01*
X171448496Y-80994968D02*
X171496115Y-80947348D01*
X171496115Y-80947348D02*
X171543734Y-80852110D01*
X171543734Y-80852110D02*
X171543734Y-80566396D01*
X171543734Y-80566396D02*
X171496115Y-80471158D01*
X171496115Y-80471158D02*
X171448496Y-80423539D01*
X171448496Y-80423539D02*
X171353258Y-80375920D01*
X171353258Y-80375920D02*
X171210401Y-80375920D01*
X171210401Y-80375920D02*
X171115163Y-80423539D01*
X171115163Y-80423539D02*
X171067544Y-80471158D01*
X171067544Y-80471158D02*
X171019925Y-80566396D01*
X171019925Y-80566396D02*
X171019925Y-80852110D01*
X171019925Y-80852110D02*
X171067544Y-80947348D01*
X171067544Y-80947348D02*
X171115163Y-80994968D01*
X171115163Y-80994968D02*
X171210401Y-81042587D01*
X171210401Y-81042587D02*
X171353258Y-81042587D01*
X170686591Y-80375920D02*
X170496115Y-81042587D01*
X170496115Y-81042587D02*
X170305639Y-80566396D01*
X170305639Y-80566396D02*
X170115163Y-81042587D01*
X170115163Y-81042587D02*
X169924687Y-80375920D01*
X169162782Y-80994968D02*
X169258020Y-81042587D01*
X169258020Y-81042587D02*
X169448496Y-81042587D01*
X169448496Y-81042587D02*
X169543734Y-80994968D01*
X169543734Y-80994968D02*
X169591353Y-80899729D01*
X169591353Y-80899729D02*
X169591353Y-80518777D01*
X169591353Y-80518777D02*
X169543734Y-80423539D01*
X169543734Y-80423539D02*
X169448496Y-80375920D01*
X169448496Y-80375920D02*
X169258020Y-80375920D01*
X169258020Y-80375920D02*
X169162782Y-80423539D01*
X169162782Y-80423539D02*
X169115163Y-80518777D01*
X169115163Y-80518777D02*
X169115163Y-80614015D01*
X169115163Y-80614015D02*
X169591353Y-80709253D01*
X168686591Y-81042587D02*
X168686591Y-80375920D01*
X168686591Y-80566396D02*
X168638972Y-80471158D01*
X168638972Y-80471158D02*
X168591353Y-80423539D01*
X168591353Y-80423539D02*
X168496115Y-80375920D01*
X168496115Y-80375920D02*
X168400877Y-80375920D01*
X167448495Y-80042587D02*
X167115162Y-81042587D01*
X167115162Y-81042587D02*
X166781829Y-80042587D01*
X165924686Y-81042587D02*
X166496114Y-81042587D01*
X166210400Y-81042587D02*
X166210400Y-80042587D01*
X166210400Y-80042587D02*
X166305638Y-80185444D01*
X166305638Y-80185444D02*
X166400876Y-80280682D01*
X166400876Y-80280682D02*
X166496114Y-80328301D01*
X172496115Y-82652531D02*
X172496115Y-81652531D01*
X172496115Y-81652531D02*
X172258020Y-81652531D01*
X172258020Y-81652531D02*
X172115163Y-81700150D01*
X172115163Y-81700150D02*
X172019925Y-81795388D01*
X172019925Y-81795388D02*
X171972306Y-81890626D01*
X171972306Y-81890626D02*
X171924687Y-82081102D01*
X171924687Y-82081102D02*
X171924687Y-82223959D01*
X171924687Y-82223959D02*
X171972306Y-82414435D01*
X171972306Y-82414435D02*
X172019925Y-82509673D01*
X172019925Y-82509673D02*
X172115163Y-82604912D01*
X172115163Y-82604912D02*
X172258020Y-82652531D01*
X172258020Y-82652531D02*
X172496115Y-82652531D01*
X171115163Y-82604912D02*
X171210401Y-82652531D01*
X171210401Y-82652531D02*
X171400877Y-82652531D01*
X171400877Y-82652531D02*
X171496115Y-82604912D01*
X171496115Y-82604912D02*
X171543734Y-82509673D01*
X171543734Y-82509673D02*
X171543734Y-82128721D01*
X171543734Y-82128721D02*
X171496115Y-82033483D01*
X171496115Y-82033483D02*
X171400877Y-81985864D01*
X171400877Y-81985864D02*
X171210401Y-81985864D01*
X171210401Y-81985864D02*
X171115163Y-82033483D01*
X171115163Y-82033483D02*
X171067544Y-82128721D01*
X171067544Y-82128721D02*
X171067544Y-82223959D01*
X171067544Y-82223959D02*
X171543734Y-82319197D01*
X170686591Y-82604912D02*
X170591353Y-82652531D01*
X170591353Y-82652531D02*
X170400877Y-82652531D01*
X170400877Y-82652531D02*
X170305639Y-82604912D01*
X170305639Y-82604912D02*
X170258020Y-82509673D01*
X170258020Y-82509673D02*
X170258020Y-82462054D01*
X170258020Y-82462054D02*
X170305639Y-82366816D01*
X170305639Y-82366816D02*
X170400877Y-82319197D01*
X170400877Y-82319197D02*
X170543734Y-82319197D01*
X170543734Y-82319197D02*
X170638972Y-82271578D01*
X170638972Y-82271578D02*
X170686591Y-82176340D01*
X170686591Y-82176340D02*
X170686591Y-82128721D01*
X170686591Y-82128721D02*
X170638972Y-82033483D01*
X170638972Y-82033483D02*
X170543734Y-81985864D01*
X170543734Y-81985864D02*
X170400877Y-81985864D01*
X170400877Y-81985864D02*
X170305639Y-82033483D01*
X169829448Y-82652531D02*
X169829448Y-81985864D01*
X169829448Y-81652531D02*
X169877067Y-81700150D01*
X169877067Y-81700150D02*
X169829448Y-81747769D01*
X169829448Y-81747769D02*
X169781829Y-81700150D01*
X169781829Y-81700150D02*
X169829448Y-81652531D01*
X169829448Y-81652531D02*
X169829448Y-81747769D01*
X168924687Y-81985864D02*
X168924687Y-82795388D01*
X168924687Y-82795388D02*
X168972306Y-82890626D01*
X168972306Y-82890626D02*
X169019925Y-82938245D01*
X169019925Y-82938245D02*
X169115163Y-82985864D01*
X169115163Y-82985864D02*
X169258020Y-82985864D01*
X169258020Y-82985864D02*
X169353258Y-82938245D01*
X168924687Y-82604912D02*
X169019925Y-82652531D01*
X169019925Y-82652531D02*
X169210401Y-82652531D01*
X169210401Y-82652531D02*
X169305639Y-82604912D01*
X169305639Y-82604912D02*
X169353258Y-82557292D01*
X169353258Y-82557292D02*
X169400877Y-82462054D01*
X169400877Y-82462054D02*
X169400877Y-82176340D01*
X169400877Y-82176340D02*
X169353258Y-82081102D01*
X169353258Y-82081102D02*
X169305639Y-82033483D01*
X169305639Y-82033483D02*
X169210401Y-81985864D01*
X169210401Y-81985864D02*
X169019925Y-81985864D01*
X169019925Y-81985864D02*
X168924687Y-82033483D01*
X168448496Y-81985864D02*
X168448496Y-82652531D01*
X168448496Y-82081102D02*
X168400877Y-82033483D01*
X168400877Y-82033483D02*
X168305639Y-81985864D01*
X168305639Y-81985864D02*
X168162782Y-81985864D01*
X168162782Y-81985864D02*
X168067544Y-82033483D01*
X168067544Y-82033483D02*
X168019925Y-82128721D01*
X168019925Y-82128721D02*
X168019925Y-82652531D01*
X167162782Y-82604912D02*
X167258020Y-82652531D01*
X167258020Y-82652531D02*
X167448496Y-82652531D01*
X167448496Y-82652531D02*
X167543734Y-82604912D01*
X167543734Y-82604912D02*
X167591353Y-82509673D01*
X167591353Y-82509673D02*
X167591353Y-82128721D01*
X167591353Y-82128721D02*
X167543734Y-82033483D01*
X167543734Y-82033483D02*
X167448496Y-81985864D01*
X167448496Y-81985864D02*
X167258020Y-81985864D01*
X167258020Y-81985864D02*
X167162782Y-82033483D01*
X167162782Y-82033483D02*
X167115163Y-82128721D01*
X167115163Y-82128721D02*
X167115163Y-82223959D01*
X167115163Y-82223959D02*
X167591353Y-82319197D01*
X166258020Y-82652531D02*
X166258020Y-81652531D01*
X166258020Y-82604912D02*
X166353258Y-82652531D01*
X166353258Y-82652531D02*
X166543734Y-82652531D01*
X166543734Y-82652531D02*
X166638972Y-82604912D01*
X166638972Y-82604912D02*
X166686591Y-82557292D01*
X166686591Y-82557292D02*
X166734210Y-82462054D01*
X166734210Y-82462054D02*
X166734210Y-82176340D01*
X166734210Y-82176340D02*
X166686591Y-82081102D01*
X166686591Y-82081102D02*
X166638972Y-82033483D01*
X166638972Y-82033483D02*
X166543734Y-81985864D01*
X166543734Y-81985864D02*
X166353258Y-81985864D01*
X166353258Y-81985864D02*
X166258020Y-82033483D01*
X165019924Y-82652531D02*
X165019924Y-81652531D01*
X165019924Y-82033483D02*
X164924686Y-81985864D01*
X164924686Y-81985864D02*
X164734210Y-81985864D01*
X164734210Y-81985864D02*
X164638972Y-82033483D01*
X164638972Y-82033483D02*
X164591353Y-82081102D01*
X164591353Y-82081102D02*
X164543734Y-82176340D01*
X164543734Y-82176340D02*
X164543734Y-82462054D01*
X164543734Y-82462054D02*
X164591353Y-82557292D01*
X164591353Y-82557292D02*
X164638972Y-82604912D01*
X164638972Y-82604912D02*
X164734210Y-82652531D01*
X164734210Y-82652531D02*
X164924686Y-82652531D01*
X164924686Y-82652531D02*
X165019924Y-82604912D01*
X164210400Y-81985864D02*
X163972305Y-82652531D01*
X163734210Y-81985864D02*
X163972305Y-82652531D01*
X163972305Y-82652531D02*
X164067543Y-82890626D01*
X164067543Y-82890626D02*
X164115162Y-82938245D01*
X164115162Y-82938245D02*
X164210400Y-82985864D01*
X162400876Y-81652531D02*
X162210400Y-81652531D01*
X162210400Y-81652531D02*
X162115162Y-81700150D01*
X162115162Y-81700150D02*
X162019924Y-81795388D01*
X162019924Y-81795388D02*
X161972305Y-81985864D01*
X161972305Y-81985864D02*
X161972305Y-82319197D01*
X161972305Y-82319197D02*
X162019924Y-82509673D01*
X162019924Y-82509673D02*
X162115162Y-82604912D01*
X162115162Y-82604912D02*
X162210400Y-82652531D01*
X162210400Y-82652531D02*
X162400876Y-82652531D01*
X162400876Y-82652531D02*
X162496114Y-82604912D01*
X162496114Y-82604912D02*
X162591352Y-82509673D01*
X162591352Y-82509673D02*
X162638971Y-82319197D01*
X162638971Y-82319197D02*
X162638971Y-81985864D01*
X162638971Y-81985864D02*
X162591352Y-81795388D01*
X162591352Y-81795388D02*
X162496114Y-81700150D01*
X162496114Y-81700150D02*
X162400876Y-81652531D01*
X161400876Y-82652531D02*
X161496114Y-82604912D01*
X161496114Y-82604912D02*
X161543733Y-82509673D01*
X161543733Y-82509673D02*
X161543733Y-81652531D01*
X161019923Y-82652531D02*
X161019923Y-81985864D01*
X161019923Y-81652531D02*
X161067542Y-81700150D01*
X161067542Y-81700150D02*
X161019923Y-81747769D01*
X161019923Y-81747769D02*
X160972304Y-81700150D01*
X160972304Y-81700150D02*
X161019923Y-81652531D01*
X161019923Y-81652531D02*
X161019923Y-81747769D01*
X160638971Y-81985864D02*
X160400876Y-82652531D01*
X160400876Y-82652531D02*
X160162781Y-81985864D01*
X159781828Y-82652531D02*
X159781828Y-81985864D01*
X159781828Y-81652531D02*
X159829447Y-81700150D01*
X159829447Y-81700150D02*
X159781828Y-81747769D01*
X159781828Y-81747769D02*
X159734209Y-81700150D01*
X159734209Y-81700150D02*
X159781828Y-81652531D01*
X159781828Y-81652531D02*
X159781828Y-81747769D01*
X158877067Y-82652531D02*
X158877067Y-82128721D01*
X158877067Y-82128721D02*
X158924686Y-82033483D01*
X158924686Y-82033483D02*
X159019924Y-81985864D01*
X159019924Y-81985864D02*
X159210400Y-81985864D01*
X159210400Y-81985864D02*
X159305638Y-82033483D01*
X158877067Y-82604912D02*
X158972305Y-82652531D01*
X158972305Y-82652531D02*
X159210400Y-82652531D01*
X159210400Y-82652531D02*
X159305638Y-82604912D01*
X159305638Y-82604912D02*
X159353257Y-82509673D01*
X159353257Y-82509673D02*
X159353257Y-82414435D01*
X159353257Y-82414435D02*
X159305638Y-82319197D01*
X159305638Y-82319197D02*
X159210400Y-82271578D01*
X159210400Y-82271578D02*
X158972305Y-82271578D01*
X158972305Y-82271578D02*
X158877067Y-82223959D01*
X157448495Y-82176340D02*
X157448495Y-82652531D01*
X157781828Y-81652531D02*
X157448495Y-82176340D01*
X157448495Y-82176340D02*
X157115162Y-81652531D01*
X156400876Y-82604912D02*
X156496114Y-82652531D01*
X156496114Y-82652531D02*
X156686590Y-82652531D01*
X156686590Y-82652531D02*
X156781828Y-82604912D01*
X156781828Y-82604912D02*
X156829447Y-82509673D01*
X156829447Y-82509673D02*
X156829447Y-82128721D01*
X156829447Y-82128721D02*
X156781828Y-82033483D01*
X156781828Y-82033483D02*
X156686590Y-81985864D01*
X156686590Y-81985864D02*
X156496114Y-81985864D01*
X156496114Y-81985864D02*
X156400876Y-82033483D01*
X156400876Y-82033483D02*
X156353257Y-82128721D01*
X156353257Y-82128721D02*
X156353257Y-82223959D01*
X156353257Y-82223959D02*
X156829447Y-82319197D01*
X172305639Y-84872419D02*
X172210401Y-84872419D01*
X172210401Y-84872419D02*
X172115163Y-84920038D01*
X172115163Y-84920038D02*
X172067544Y-84967657D01*
X172067544Y-84967657D02*
X172019925Y-85062895D01*
X172019925Y-85062895D02*
X171972306Y-85253371D01*
X171972306Y-85253371D02*
X171972306Y-85491466D01*
X171972306Y-85491466D02*
X172019925Y-85681942D01*
X172019925Y-85681942D02*
X172067544Y-85777180D01*
X172067544Y-85777180D02*
X172115163Y-85824800D01*
X172115163Y-85824800D02*
X172210401Y-85872419D01*
X172210401Y-85872419D02*
X172305639Y-85872419D01*
X172305639Y-85872419D02*
X172400877Y-85824800D01*
X172400877Y-85824800D02*
X172448496Y-85777180D01*
X172448496Y-85777180D02*
X172496115Y-85681942D01*
X172496115Y-85681942D02*
X172543734Y-85491466D01*
X172543734Y-85491466D02*
X172543734Y-85253371D01*
X172543734Y-85253371D02*
X172496115Y-85062895D01*
X172496115Y-85062895D02*
X172448496Y-84967657D01*
X172448496Y-84967657D02*
X172400877Y-84920038D01*
X172400877Y-84920038D02*
X172305639Y-84872419D01*
X171591353Y-84967657D02*
X171543734Y-84920038D01*
X171543734Y-84920038D02*
X171448496Y-84872419D01*
X171448496Y-84872419D02*
X171210401Y-84872419D01*
X171210401Y-84872419D02*
X171115163Y-84920038D01*
X171115163Y-84920038D02*
X171067544Y-84967657D01*
X171067544Y-84967657D02*
X171019925Y-85062895D01*
X171019925Y-85062895D02*
X171019925Y-85158133D01*
X171019925Y-85158133D02*
X171067544Y-85300990D01*
X171067544Y-85300990D02*
X171638972Y-85872419D01*
X171638972Y-85872419D02*
X171019925Y-85872419D01*
X169877068Y-84824800D02*
X170734210Y-86110514D01*
X169591353Y-84967657D02*
X169543734Y-84920038D01*
X169543734Y-84920038D02*
X169448496Y-84872419D01*
X169448496Y-84872419D02*
X169210401Y-84872419D01*
X169210401Y-84872419D02*
X169115163Y-84920038D01*
X169115163Y-84920038D02*
X169067544Y-84967657D01*
X169067544Y-84967657D02*
X169019925Y-85062895D01*
X169019925Y-85062895D02*
X169019925Y-85158133D01*
X169019925Y-85158133D02*
X169067544Y-85300990D01*
X169067544Y-85300990D02*
X169638972Y-85872419D01*
X169638972Y-85872419D02*
X169019925Y-85872419D01*
X168067544Y-85872419D02*
X168638972Y-85872419D01*
X168353258Y-85872419D02*
X168353258Y-84872419D01*
X168353258Y-84872419D02*
X168448496Y-85015276D01*
X168448496Y-85015276D02*
X168543734Y-85110514D01*
X168543734Y-85110514D02*
X168638972Y-85158133D01*
X166924687Y-84824800D02*
X167781829Y-86110514D01*
X166638972Y-84967657D02*
X166591353Y-84920038D01*
X166591353Y-84920038D02*
X166496115Y-84872419D01*
X166496115Y-84872419D02*
X166258020Y-84872419D01*
X166258020Y-84872419D02*
X166162782Y-84920038D01*
X166162782Y-84920038D02*
X166115163Y-84967657D01*
X166115163Y-84967657D02*
X166067544Y-85062895D01*
X166067544Y-85062895D02*
X166067544Y-85158133D01*
X166067544Y-85158133D02*
X166115163Y-85300990D01*
X166115163Y-85300990D02*
X166686591Y-85872419D01*
X166686591Y-85872419D02*
X166067544Y-85872419D01*
X165448496Y-84872419D02*
X165353258Y-84872419D01*
X165353258Y-84872419D02*
X165258020Y-84920038D01*
X165258020Y-84920038D02*
X165210401Y-84967657D01*
X165210401Y-84967657D02*
X165162782Y-85062895D01*
X165162782Y-85062895D02*
X165115163Y-85253371D01*
X165115163Y-85253371D02*
X165115163Y-85491466D01*
X165115163Y-85491466D02*
X165162782Y-85681942D01*
X165162782Y-85681942D02*
X165210401Y-85777180D01*
X165210401Y-85777180D02*
X165258020Y-85824800D01*
X165258020Y-85824800D02*
X165353258Y-85872419D01*
X165353258Y-85872419D02*
X165448496Y-85872419D01*
X165448496Y-85872419D02*
X165543734Y-85824800D01*
X165543734Y-85824800D02*
X165591353Y-85777180D01*
X165591353Y-85777180D02*
X165638972Y-85681942D01*
X165638972Y-85681942D02*
X165686591Y-85491466D01*
X165686591Y-85491466D02*
X165686591Y-85253371D01*
X165686591Y-85253371D02*
X165638972Y-85062895D01*
X165638972Y-85062895D02*
X165591353Y-84967657D01*
X165591353Y-84967657D02*
X165543734Y-84920038D01*
X165543734Y-84920038D02*
X165448496Y-84872419D01*
X164734210Y-84967657D02*
X164686591Y-84920038D01*
X164686591Y-84920038D02*
X164591353Y-84872419D01*
X164591353Y-84872419D02*
X164353258Y-84872419D01*
X164353258Y-84872419D02*
X164258020Y-84920038D01*
X164258020Y-84920038D02*
X164210401Y-84967657D01*
X164210401Y-84967657D02*
X164162782Y-85062895D01*
X164162782Y-85062895D02*
X164162782Y-85158133D01*
X164162782Y-85158133D02*
X164210401Y-85300990D01*
X164210401Y-85300990D02*
X164781829Y-85872419D01*
X164781829Y-85872419D02*
X164162782Y-85872419D01*
X163305639Y-84872419D02*
X163496115Y-84872419D01*
X163496115Y-84872419D02*
X163591353Y-84920038D01*
X163591353Y-84920038D02*
X163638972Y-84967657D01*
X163638972Y-84967657D02*
X163734210Y-85110514D01*
X163734210Y-85110514D02*
X163781829Y-85300990D01*
X163781829Y-85300990D02*
X163781829Y-85681942D01*
X163781829Y-85681942D02*
X163734210Y-85777180D01*
X163734210Y-85777180D02*
X163686591Y-85824800D01*
X163686591Y-85824800D02*
X163591353Y-85872419D01*
X163591353Y-85872419D02*
X163400877Y-85872419D01*
X163400877Y-85872419D02*
X163305639Y-85824800D01*
X163305639Y-85824800D02*
X163258020Y-85777180D01*
X163258020Y-85777180D02*
X163210401Y-85681942D01*
X163210401Y-85681942D02*
X163210401Y-85443847D01*
X163210401Y-85443847D02*
X163258020Y-85348609D01*
X163258020Y-85348609D02*
X163305639Y-85300990D01*
X163305639Y-85300990D02*
X163400877Y-85253371D01*
X163400877Y-85253371D02*
X163591353Y-85253371D01*
X163591353Y-85253371D02*
X163686591Y-85300990D01*
X163686591Y-85300990D02*
X163734210Y-85348609D01*
X163734210Y-85348609D02*
X163781829Y-85443847D01*
M02*
