%TF.GenerationSoftware,KiCad,Pcbnew,9.0.7*%
%TF.CreationDate,2026-02-21T00:07:38-05:00*%
%TF.ProjectId,roamr-power,726f616d-722d-4706-9f77-65722e6b6963,rev?*%
%TF.SameCoordinates,Original*%
%TF.FileFunction,Other,User*%
%FSLAX46Y46*%
G04 Gerber Fmt 4.6, Leading zero omitted, Abs format (unit mm)*
G04 Created by KiCad (PCBNEW 9.0.7) date 2026-02-21 00:07:38*
%MOMM*%
%LPD*%
G01*
G04 APERTURE LIST*
%ADD10C,0.050000*%
%ADD11C,0.100000*%
%ADD12C,0.200000*%
G04 APERTURE END LIST*
D10*
%TO.C,D6*%
X78240000Y-71850000D02*
X78240000Y-62150000D01*
X84960000Y-71850000D02*
X78240000Y-71850000D01*
X78240000Y-62150000D02*
X84960000Y-62150000D01*
X84960000Y-62150000D02*
X84960000Y-71850000D01*
%TO.C,C6*%
X138820000Y-65200000D02*
X140780000Y-65200000D01*
X140780000Y-61800000D01*
X138820000Y-61800000D01*
X138820000Y-65200000D01*
%TO.C,D8*%
X155075000Y-86400000D02*
X155075000Y-83100000D01*
X155075000Y-83100000D02*
X156925000Y-83100000D01*
X156925000Y-83100000D02*
X156925000Y-86400000D01*
X156925000Y-86400000D02*
X155075000Y-86400000D01*
%TO.C,D7*%
X156675000Y-54100000D02*
X156675000Y-57400000D01*
X156675000Y-57400000D02*
X154825000Y-57400000D01*
X154825000Y-57400000D02*
X154825000Y-54100000D01*
X154825000Y-54100000D02*
X156675000Y-54100000D01*
%TO.C,D3*%
X103175000Y-88605000D02*
X103175000Y-85305000D01*
X103175000Y-85305000D02*
X105025000Y-85305000D01*
X105025000Y-85305000D02*
X105025000Y-88605000D01*
X105025000Y-88605000D02*
X103175000Y-88605000D01*
%TO.C,D2*%
X106175000Y-88500000D02*
X106175000Y-85200000D01*
X106175000Y-85200000D02*
X108025000Y-85200000D01*
X108025000Y-85200000D02*
X108025000Y-88500000D01*
X108025000Y-88500000D02*
X106175000Y-88500000D01*
%TO.C,R16*%
X77570000Y-81555000D02*
X79030000Y-81555000D01*
X79030000Y-78595000D01*
X77570000Y-78595000D01*
X77570000Y-81555000D01*
D11*
%TO.C,J4*%
X67999000Y-72175000D02*
X77405000Y-72175000D01*
X67999000Y-84825000D02*
X67999000Y-72175000D01*
X77405000Y-84825000D02*
X67999000Y-84825000D01*
X77405000Y-72175000D02*
X77405000Y-84825000D01*
%TO.C,J3*%
D10*
X172050000Y-82700000D02*
X184550000Y-82700000D01*
X184550000Y-74300000D01*
X172050000Y-74300000D01*
X172050000Y-82700000D01*
%TO.C,J2*%
X171950000Y-66700000D02*
X184450000Y-66700000D01*
X184450000Y-58300000D01*
X171950000Y-58300000D01*
X171950000Y-66700000D01*
%TO.C,Q1*%
X98200000Y-74350000D02*
X102000000Y-74350000D01*
X102000000Y-74350000D02*
X102000000Y-77850000D01*
X102000000Y-77850000D02*
X98200000Y-77850000D01*
X98200000Y-77850000D02*
X98200000Y-74350000D01*
%TO.C,U2*%
X102350000Y-74175000D02*
X98150000Y-74175000D01*
X102350000Y-70625000D02*
X102350000Y-74175000D01*
X98150000Y-74175000D02*
X98150000Y-70625000D01*
X98150000Y-70625000D02*
X102350000Y-70625000D01*
%TO.C,R6*%
X137270000Y-65205000D02*
X138730000Y-65205000D01*
X138730000Y-62245000D01*
X137270000Y-62245000D01*
X137270000Y-65205000D01*
%TO.C,R8*%
X102330000Y-85045000D02*
X100870000Y-85045000D01*
X100870000Y-88005000D01*
X102330000Y-88005000D01*
X102330000Y-85045000D01*
%TO.C,R10*%
X154230000Y-83445000D02*
X152770000Y-83445000D01*
X152770000Y-86405000D01*
X154230000Y-86405000D01*
X154230000Y-83445000D01*
%TO.C,C9*%
X139020000Y-61680000D02*
X140480000Y-61680000D01*
X140480000Y-58720000D01*
X139020000Y-58720000D01*
X139020000Y-61680000D01*
%TO.C,R12*%
X97030000Y-60020000D02*
X95570000Y-60020000D01*
X95570000Y-62980000D01*
X97030000Y-62980000D01*
X97030000Y-60020000D01*
%TO.C,C1*%
X141020000Y-67770000D02*
X143980000Y-67770000D01*
X143980000Y-69230000D01*
X141020000Y-69230000D01*
X141020000Y-67770000D01*
%TO.C,R11*%
X93770000Y-62980000D02*
X95230000Y-62980000D01*
X95230000Y-60020000D01*
X93770000Y-60020000D01*
X93770000Y-62980000D01*
%TO.C,C14*%
X97705000Y-76130000D02*
X94745000Y-76130000D01*
X94745000Y-74670000D01*
X97705000Y-74670000D01*
X97705000Y-76130000D01*
%TO.C,L2*%
D12*
X137000950Y-57127700D02*
X130000950Y-57127700D01*
X130000950Y-65127700D01*
X137000950Y-65127700D01*
X137000950Y-57127700D01*
%TO.C,L1*%
X145000000Y-69941600D02*
X137000000Y-69941600D01*
X137000000Y-77941600D01*
X145000000Y-77941600D01*
X145000000Y-69941600D01*
%TO.C,U1*%
D10*
X135760002Y-65305401D02*
X140810002Y-65305401D01*
X140810002Y-69755401D01*
X135760002Y-69755401D01*
X135760002Y-65305401D01*
%TO.C,C5*%
X140870000Y-65180000D02*
X142330000Y-65180000D01*
X142330000Y-62220000D01*
X140870000Y-62220000D01*
X140870000Y-65180000D01*
%TO.C,C10*%
X142430000Y-78595000D02*
X140970000Y-78595000D01*
X140970000Y-81555000D01*
X142430000Y-81555000D01*
X142430000Y-78595000D01*
%TO.C,R13*%
X89430000Y-59995000D02*
X87970000Y-59995000D01*
X87970000Y-62955000D01*
X89430000Y-62955000D01*
X89430000Y-59995000D01*
D11*
%TO.C,C8*%
X108350000Y-53725000D02*
X118650000Y-53725000D01*
X108350000Y-66825000D02*
X108350000Y-53725000D01*
X118650000Y-53725000D02*
X118650000Y-66825000D01*
X118650000Y-66825000D02*
X108350000Y-66825000D01*
%TO.C,D1*%
X79350000Y-72400000D02*
X83850000Y-72400000D01*
X79350000Y-80800000D02*
X79350000Y-72400000D01*
X83850000Y-72400000D02*
X83850000Y-80800000D01*
X83850000Y-80800000D02*
X79350000Y-80800000D01*
%TO.C,J1*%
X68000000Y-57125000D02*
X77600000Y-57125000D01*
X68000000Y-69625000D02*
X68000000Y-57125000D01*
X77600000Y-57125000D02*
X77600000Y-69625000D01*
X77600000Y-69625000D02*
X68000000Y-69625000D01*
%TO.C,R15*%
D10*
X79030000Y-75520000D02*
X77570000Y-75520000D01*
X77570000Y-78480000D01*
X79030000Y-78480000D01*
X79030000Y-75520000D01*
%TO.C,C12*%
X85900000Y-67875000D02*
X93700000Y-67875000D01*
X85900000Y-77825000D02*
X85900000Y-67875000D01*
X93700000Y-67875000D02*
X93700000Y-77825000D01*
X93700000Y-77825000D02*
X85900000Y-77825000D01*
%TO.C,R4*%
X134070000Y-70305000D02*
X135530000Y-70305000D01*
X135530000Y-67345000D01*
X134070000Y-67345000D01*
X134070000Y-70305000D01*
%TO.C,TP1*%
X126500000Y-71750000D02*
G75*
G02*
X124000000Y-71750000I-1250000J0D01*
G01*
X124000000Y-71750000D02*
G75*
G02*
X126500000Y-71750000I1250000J0D01*
G01*
%TO.C,C13*%
X103930000Y-72895000D02*
X102470000Y-72895000D01*
X102470000Y-75855000D01*
X103930000Y-75855000D01*
X103930000Y-72895000D01*
%TO.C,R5*%
X152520000Y-57405000D02*
X153980000Y-57405000D01*
X153980000Y-54445000D01*
X152520000Y-54445000D01*
X152520000Y-57405000D01*
%TO.C,C4*%
X140830000Y-78595000D02*
X139370000Y-78595000D01*
X139370000Y-81555000D01*
X140830000Y-81555000D01*
X140830000Y-78595000D01*
%TO.C,C3*%
X132370483Y-70316497D02*
X133830483Y-70316497D01*
X133830483Y-67356497D01*
X132370483Y-67356497D01*
X132370483Y-70316497D01*
%TO.C,R14*%
X86270000Y-62980000D02*
X87730000Y-62980000D01*
X87730000Y-60020000D01*
X86270000Y-60020000D01*
X86270000Y-62980000D01*
%TO.C,TP3*%
X134400000Y-80400000D02*
G75*
G02*
X130400000Y-80400000I-2000000J0D01*
G01*
X130400000Y-80400000D02*
G75*
G02*
X134400000Y-80400000I2000000J0D01*
G01*
%TO.C,C7*%
X137270000Y-62005000D02*
X138730000Y-62005000D01*
X138730000Y-59045000D01*
X137270000Y-59045000D01*
X137270000Y-62005000D01*
D11*
%TO.C,C11*%
X119350000Y-53725000D02*
X129650000Y-53725000D01*
X119350000Y-66825000D02*
X119350000Y-53725000D01*
X129650000Y-53725000D02*
X129650000Y-66825000D01*
X129650000Y-66825000D02*
X119350000Y-66825000D01*
%TO.C,R7*%
D10*
X110330000Y-85045000D02*
X108870000Y-85045000D01*
X108870000Y-88005000D01*
X110330000Y-88005000D01*
X110330000Y-85045000D01*
%TO.C,TP4*%
X114000000Y-71750000D02*
G75*
G02*
X111500000Y-71750000I-1250000J0D01*
G01*
X111500000Y-71750000D02*
G75*
G02*
X114000000Y-71750000I1250000J0D01*
G01*
D11*
%TO.C,D5*%
X165250000Y-74600000D02*
X169750000Y-74600000D01*
X165250000Y-83000000D02*
X165250000Y-74600000D01*
X169750000Y-74600000D02*
X169750000Y-83000000D01*
X169750000Y-83000000D02*
X165250000Y-83000000D01*
%TO.C,R9*%
D10*
X94695000Y-76320000D02*
X97655000Y-76320000D01*
X97655000Y-77780000D01*
X94695000Y-77780000D01*
X94695000Y-76320000D01*
%TO.C,U3*%
X89975000Y-61600000D02*
X93225000Y-61600000D01*
X89975000Y-64200000D02*
X89975000Y-61600000D01*
X93225000Y-61600000D02*
X93225000Y-64200000D01*
X93225000Y-64200000D02*
X89975000Y-64200000D01*
%TO.C,R2*%
X97980000Y-73130000D02*
X95020000Y-73130000D01*
X95020000Y-71670000D01*
X97980000Y-71670000D01*
X97980000Y-73130000D01*
%TO.C,R1*%
X132620000Y-65770000D02*
X135580000Y-65770000D01*
X135580000Y-67230000D01*
X132620000Y-67230000D01*
X132620000Y-65770000D01*
%TO.C,TP2*%
X120250000Y-71750000D02*
G75*
G02*
X117750000Y-71750000I-1250000J0D01*
G01*
X117750000Y-71750000D02*
G75*
G02*
X120250000Y-71750000I1250000J0D01*
G01*
D11*
%TO.C,D4*%
X165250000Y-58000000D02*
X169750000Y-58000000D01*
X165250000Y-66400000D02*
X165250000Y-58000000D01*
X169750000Y-58000000D02*
X169750000Y-66400000D01*
X169750000Y-66400000D02*
X165250000Y-66400000D01*
%TO.C,R3*%
D10*
X132205000Y-68730000D02*
X129245000Y-68730000D01*
X129245000Y-67270000D01*
X132205000Y-67270000D01*
X132205000Y-68730000D01*
%TD*%
M02*
